<?xml version="1.0" encoding="UTF-8"?>
<svg version="1.1" xmlns="http://www.w3.org/2000/svg" width="500" height="500">
<path d="M0 0 C2.45593018 0.37114296 3.68573787 0.64127378 5.34936523 2.5402832 C5.94793335 3.53547974 5.94793335 3.53547974 6.55859375 4.55078125 C7.01999756 5.30157959 7.48140137 6.05237793 7.95678711 6.82592773 C8.44542236 7.64649658 8.93405762 8.46706543 9.4375 9.3125 C10.50902802 11.06074771 11.58199117 12.80811648 12.65625 14.5546875 C13.20796875 15.45799805 13.7596875 16.36130859 14.328125 17.29199219 C16.95949381 21.55413337 19.6958446 25.74577111 22.4375 29.9375 C23.53128341 31.61586365 24.62503324 33.29424917 25.71875 34.97265625 C26.81238959 36.64850956 27.90613905 38.32429117 29 40 C36.32201367 51.22014383 43.58753814 62.47226926 50.76708984 73.78417969 C56.24893367 82.4121913 61.81497334 90.98388879 67.39990234 99.54541016 C69.5275161 102.8092229 71.6496248 106.07659719 73.77172852 109.34399414 C78.4039218 116.47603408 83.04400978 123.60287008 87.69165039 130.72485352 C96.41406113 144.09099246 105.11053276 157.47174546 113.70336914 170.92163086 C119.76523086 180.40960505 125.85021128 189.88122186 132 199.3125 C132.62173096 200.26688965 133.24346191 201.2212793 133.8840332 202.20458984 C136.46418385 206.15619704 139.0522268 210.09945819 141.71484375 213.99609375 C142.44832031 215.06988281 143.18179687 216.14367187 143.9375 217.25 C144.54464844 218.12140625 145.15179688 218.9928125 145.77734375 219.890625 C147 222 147 222 147 225 C141.90417715 226.69860762 136.49986136 226.05956732 131.17602539 225.92285156 C129.76900034 225.89099562 128.36169267 225.86980583 126.9543457 225.859375 C124.91755693 225.8441128 122.88372816 225.7967222 120.84765625 225.7421875 C119.63086182 225.7201123 118.41406738 225.69803711 117.16040039 225.67529297 C114 225 114 225 111.78222656 222.77539062 C111.1940918 221.85951172 110.60595703 220.94363281 110 220 C109.44401123 219.17580566 108.88802246 218.35161133 108.31518555 217.50244141 C107.48434448 216.19025635 107.48434448 216.19025635 106.63671875 214.8515625 C106.00491699 213.85809814 105.37311523 212.86463379 104.72216797 211.84106445 C103.71500732 210.24911255 103.71500732 210.24911255 102.6875 208.625 C101.24694959 206.36012548 99.8057437 204.09568665 98.36328125 201.83203125 C97.99819458 201.25867538 97.63310791 200.68531952 97.25695801 200.09458923 C93.67266595 194.47227443 90.0284059 188.89004263 86.375 183.3125 C80.84936709 174.86844498 75.40059912 166.37884376 69.99438477 157.85791016 C65.1469308 150.21970671 60.24425151 142.61871484 55.31787109 135.03125 C53.53693184 132.28626768 51.76076221 129.53821263 49.984375 126.7902832 C46.65697901 121.64321752 43.32649031 116.49826483 39.98046875 111.36328125 C33.26259506 101.05200458 26.60269142 90.70549313 19.9777832 80.33422852 C13.70501807 70.52145593 7.36599949 60.75248622 1 51 C-2.67995472 55.44810061 -5.95696136 60.13934536 -9.25 64.875 C-9.8598877 65.74922607 -10.46977539 66.62345215 -11.09814453 67.52416992 C-13.0673428 70.3481191 -15.03389134 73.17389906 -17 76 C-18.30466801 77.87371149 -19.60935549 79.74740942 -20.9140625 81.62109375 C-24.2672361 86.43827058 -27.61784534 91.25722598 -30.96777344 96.07666016 C-34.31061055 100.88530162 -37.65539381 105.69258892 -41 110.5 C-42.33334287 112.41666003 -43.6666762 114.3333267 -45 116.25 C-69 150.75 -69 150.75 -71.00292969 153.62915039 C-72.32657381 155.53192927 -73.65014242 157.43476068 -74.97363281 159.33764648 C-78.45457056 164.34224581 -81.93709591 169.34573079 -85.421875 174.34765625 C-86.14632812 175.38792969 -86.87078125 176.42820312 -87.6171875 177.5 C-89.00211883 179.48861934 -90.38750898 181.47691925 -91.7734375 183.46484375 C-92.39992187 184.36460937 -93.02640625 185.264375 -93.671875 186.19140625 C-94.2194043 186.97717041 -94.76693359 187.76293457 -95.33105469 188.57250977 C-97.24946265 191.36284481 -99.12387032 194.18110896 -101 197 C-88.93387834 197.2174337 -76.86981673 197.35304614 -64.80169964 197.38603115 C-59.19675685 197.40388335 -53.59492589 197.44923552 -47.9909668 197.55883789 C-42.57585874 197.66371178 -37.16479756 197.69451333 -31.74875832 197.67534065 C-29.68941428 197.68080201 -27.62995912 197.71234972 -25.57144737 197.77114677 C-14.77378223 198.3970369 -14.77378223 198.3970369 -5.07122231 194.53512955 C-1.70651781 191.02715789 0.74124733 187.09823283 3.01101875 182.820611 C4.4078752 180.24914443 6.08814184 177.90585292 7.79296875 175.53125 C8.9267566 173.85570548 10.05825605 172.17861026 11.1875 170.5 C12.45887784 168.62578795 13.73104188 166.75210904 15.00390625 164.87890625 C15.65246582 163.92387207 16.30102539 162.96883789 16.96923828 161.98486328 C20.50348669 156.79013846 24.05656203 151.60879121 27.625 146.4375 C28.61922974 144.9834375 28.61922974 144.9834375 29.63354492 143.5 C32.79949933 138.92447589 35.87049748 134.74186722 40 131 C42.0508394 133.96768525 44.03389951 136.97553493 46 140 C46.39058594 140.59989746 46.78117188 141.19979492 47.18359375 141.81787109 C48.45234579 143.7847332 49.69694329 145.7652549 50.9375 147.75 C51.3512085 148.38752197 51.76491699 149.02504395 52.19116211 149.68188477 C55.05676998 154.33446256 55.05676998 154.33446256 54.79345703 157.42138672 C53.90519602 160.30809834 52.71542458 162.25246194 50.96484375 164.7109375 C50.32844971 165.61424805 49.69205566 166.51755859 49.03637695 167.44824219 C48.34374756 168.41407227 47.65111816 169.37990234 46.9375 170.375 C45.47115549 172.45038047 44.00501539 174.52590538 42.5390625 176.6015625 C41.7852832 177.6627832 41.03150391 178.72400391 40.25488281 179.81738281 C36.74339605 184.77361294 33.27825767 189.76174016 29.8125 194.75 C28.92582642 196.02109619 28.92582642 196.02109619 28.02124023 197.31787109 C27.42255127 198.17719238 26.8238623 199.03651367 26.20703125 199.921875 C25.56705704 200.77709244 24.92708282 201.63230988 24.26771545 202.51344299 C22.43292623 205.12406097 21.24694632 207.73074283 20.05126953 210.68458557 C17.3772866 216.54109118 14.42583135 221.35695928 9 225 C-1.98428059 228.33909455 -14.09268477 227.27412402 -25.43449235 226.92648482 C-29.995643 226.80696071 -34.55707764 226.79649275 -39.11955261 226.77400208 C-47.74158516 226.71515654 -56.35899042 226.55955989 -64.97899312 226.36836177 C-74.79949067 226.15530812 -84.62022026 226.05135941 -94.44245684 225.95614851 C-114.6308786 225.75803089 -134.81514686 225.42427586 -155 225 C-153.39009993 220.74510373 -151.25694292 217.32629584 -148.5625 213.6875 C-147.6484821 212.43060098 -146.7357673 211.17275353 -145.82421875 209.9140625 C-145.35419434 209.26598633 -144.88416992 208.61791016 -144.39990234 207.95019531 C-142.17708773 204.853606 -140.02519228 201.70976049 -137.875 198.5625 C-127.6699272 183.65660728 -117.30817411 168.85884185 -106.93823242 154.06738281 C-103.43301367 149.06236138 -99.95393175 144.04053004 -96.5 139 C-88.05055698 126.67125295 -79.44575985 114.45048954 -70.8125 102.25 C-66.63588811 96.34537043 -62.51180958 90.40753715 -58.42504883 84.44042969 C-53.62401559 77.43576897 -48.76625937 70.47083724 -43.91210938 63.50292969 C-40.00450239 57.89062451 -36.11407653 52.26734904 -32.25 46.625 C-28.63056086 41.34072617 -24.95697762 36.09819023 -21.25 30.875 C-14.01949205 20.6844727 -7.01246597 10.34122296 0 0 Z " fill="#CDFDD9" transform="translate(190,106)"/>
<path d="M0 0 C0.99 0 1.98 0 3 0 C4.6858394 2.42535259 6.16137719 4.81773778 7.625 7.375 C12.3748949 15.4129687 17.36727153 23.26405187 22.5 31.0625 C23.24416459 32.19540607 23.98822401 33.32838123 24.73217773 34.46142578 C26.17066028 36.65124929 27.60968754 38.84071509 29.04931641 41.02978516 C36.36127186 52.16335839 43.52555676 63.38956906 50.66650391 74.63330078 C56.70791617 84.1344801 62.84783044 93.57031294 69 103 C76.00552627 113.74108174 82.9728541 124.5046239 89.875 135.3125 C96.95896797 146.40418879 104.13434826 157.4340084 111.33496094 168.45019531 C120.34674452 182.25064512 129.23274044 196.13250407 138.09960938 210.02636719 C139.40967315 212.07628712 140.72371754 214.12366671 142.04101562 216.16894531 C142.68232422 217.16764648 143.32363281 218.16634766 143.984375 219.1953125 C144.56413086 220.09523926 145.14388672 220.99516602 145.74121094 221.92236328 C147 224 147 224 147 225 C118.0551356 228.15171486 118.0551356 228.15171486 110.29101562 223.31103516 C106.00697566 218.7981469 103.56982416 213.34421928 101.17871094 207.65820312 C99.4401509 203.73744055 97.10571502 200.33875433 94.6875 196.8125 C93.78583124 195.42872463 92.8888552 194.04188246 91.99609375 192.65234375 C91.52284668 191.91870605 91.04959961 191.18506836 90.56201172 190.42919922 C87.44701609 185.58484058 84.35057044 180.72859808 81.25 175.875 C75.43337203 166.77092198 69.56037229 157.70601927 63.64550781 148.66552734 C58.36898372 140.59042774 53.17026662 132.46695544 47.98046875 124.3359375 C42.92153383 116.41845878 37.80061319 108.54331948 32.65551758 100.68164062 C27.95179435 93.48457878 23.31143195 86.24853167 18.6875 79 C14.19761641 71.96510948 9.69170379 64.94423455 5.0625 58 C4.65539795 57.38898438 4.2482959 56.77796875 3.82885742 56.1484375 C2.07889815 53.44400603 2.07889815 53.44400603 0 51 C-9.8032568 64.96299798 -9.8032568 64.96299798 -19.5 79 C-20.83126862 80.93835119 -22.16338609 82.87611449 -23.49609375 84.81347656 C-24.59325026 86.40862813 -25.68947732 88.00441909 -26.78515625 89.60058594 C-28.68441371 92.36269907 -30.59145199 95.1193004 -32.5 97.875 C-33.10005859 98.75027344 -33.70011719 99.62554687 -34.31835938 100.52734375 C-35.16624023 101.74744141 -35.16624023 101.74744141 -36.03125 102.9921875 C-36.53205078 103.71776855 -37.03285156 104.44334961 -37.54882812 105.19091797 C-39 107 -39 107 -42 109 C-47.54212434 100.78538883 -53.0331116 92.58100639 -58 84 C-54.89485662 78.32743319 -51.36403786 73.08454338 -47.625 67.8125 C-46.36710635 66.02740093 -45.10929618 64.24224303 -43.8515625 62.45703125 C-43.2112207 61.55033691 -42.57087891 60.64364258 -41.91113281 59.70947266 C-38.92880654 55.48133559 -35.9649025 51.24036367 -33 47 C-31.83602489 45.33717841 -30.6719621 43.67441818 -29.5078125 42.01171875 C-26.55234883 37.78974566 -23.59861025 33.5665691 -20.64575195 29.34277344 C-19.47641233 27.6718737 -18.30570272 26.00193177 -17.13354492 24.33300781 C-14.25005609 20.22692625 -11.38613321 16.10969534 -8.55859375 11.96484375 C-8.01154785 11.17037842 -7.46450195 10.37591309 -6.90087891 9.55737305 C-5.8650673 8.05269191 -4.83699465 6.54264502 -3.81787109 5.02661133 C-2.62030544 3.29663092 -1.31878301 1.63945328 0 0 Z " fill="#97BBFC" transform="translate(320,106)"/>
<path d="M0 0 C1.48436097 -0.004637 2.96872077 -0.00966282 4.45307922 -0.01504517 C8.46375569 -0.02808673 12.47441548 -0.03459796 16.48510981 -0.03905582 C18.9984258 -0.04200007 21.51173737 -0.04610734 24.02505112 -0.05056 C31.91075146 -0.06421352 39.79644153 -0.07389052 47.68215287 -0.07776189 C56.74397951 -0.08223682 65.80565489 -0.0997675 74.86743557 -0.12876248 C81.89964349 -0.1504721 88.93180914 -0.1604711 95.96405017 -0.16180301 C100.15127522 -0.16284446 104.33835767 -0.16861 108.52554703 -0.18662262 C112.47043653 -0.20326475 116.41507868 -0.20518181 120.35999107 -0.19648361 C121.79533113 -0.19572177 123.23068541 -0.19994103 124.66599083 -0.20994186 C150.69460865 -0.38044295 174.63708236 7.93454162 194.17138672 25.16113281 C194.79142578 25.63808594 195.41146484 26.11503906 196.05029297 26.60644531 C214.58093985 40.96662178 224.59448922 66.21328949 227.5847168 88.74462891 C229.01762887 102.0607666 228.49033083 115.60948106 228.37738037 128.98376465 C228.34621697 133.0740893 228.3328901 137.16447267 228.31787109 141.25488281 C228.28607836 149.22378999 228.23514994 157.19241746 228.17138672 165.16113281 C225.17138672 165.16113281 225.17138672 165.16113281 223.74710083 163.90849304 C212.77046422 150.32585837 211.53994347 139.04203635 212.04638672 121.97363281 C212.10415276 117.62609639 212.13198374 113.27845754 212.16357422 108.93066406 C212.17675186 107.89708267 212.1899295 106.86350128 212.20350647 105.79859924 C212.40373362 83.10775189 206.26554691 62.44542605 191.17138672 45.16113281 C190.38634766 44.17886719 189.60130859 43.19660156 188.79248047 42.18457031 C175.59495274 26.3615663 154.89847432 19.06250595 135.17138672 16.16113281 C133.13104122 16.07249146 131.08830321 16.03069748 129.04603577 16.02742004 C127.83941284 16.02315506 126.63278992 16.01889008 125.38960266 16.01449585 C124.0788829 16.01494904 122.76816315 16.01540222 121.41772461 16.01586914 C120.0126232 16.01287429 118.60752261 16.009471 117.2024231 16.00569153 C113.39403703 15.99687535 109.58567346 15.99451427 105.77727818 15.99387574 C103.39145314 15.99316329 101.00563374 15.99102516 98.6198101 15.98837852 C90.27721674 15.97912929 81.93463933 15.97504265 73.59204102 15.97583008 C65.84870149 15.97642907 58.10543203 15.96591135 50.3621102 15.95008641 C43.69089372 15.93694467 37.01969993 15.93164903 30.34847063 15.93228549 C26.37474029 15.93253876 22.40107211 15.92978373 18.42735481 15.91910744 C14.68034837 15.90931549 10.93346202 15.90942192 7.18645096 15.91662407 C5.18193723 15.91814292 3.17742322 15.90989918 1.17292786 15.90118408 C-25.16737808 15.99086265 -47.26917218 23.13165041 -66.51611328 41.53613281 C-83.20957025 58.75767805 -90.11413546 80.38220523 -89.75830078 103.89941406 C-89.74739023 106.4378141 -89.73968307 108.97622953 -89.73486328 111.51464844 C-89.72705139 115.48040196 -89.70422524 119.44242892 -89.62646484 123.4074707 C-89.32060798 140.12380534 -89.7454059 154.4446045 -101.82861328 167.16113281 C-103.14138951 168.18797084 -104.47075893 169.19469122 -105.82861328 170.16113281 C-105.89848485 159.5811097 -105.95161171 149.00114255 -105.9840498 138.42093468 C-105.99962765 133.50677649 -106.02071985 128.59277753 -106.05493164 123.67871094 C-106.08780882 118.92596523 -106.10552536 114.17337154 -106.11324501 109.42052078 C-106.1187381 107.61786129 -106.12946284 105.815209 -106.14580345 104.0126152 C-106.40225918 74.51747012 -96.43702839 49.32819012 -76.01611328 27.91113281 C-54.84115218 7.55945947 -28.75734887 0.02106839 0 0 Z " fill="#B3DDE9" transform="translate(189.82861328125,65.8388671875)"/>
<path d="M0 0 C9.80101738 9.58911799 18.63981507 20.61210311 19.18041992 34.75390625 C19.08893162 40.21579817 18.67393141 45.58028986 18 51 C17.88736816 51.93859863 17.77473633 52.87719727 17.65869141 53.84423828 C14.79222649 75.39551819 5.23319726 93.5041614 -10 109 C-10.68578125 109.69867188 -11.3715625 110.39734375 -12.078125 111.1171875 C-27.09595447 125.41193629 -48.79727794 134.07782649 -69.41575623 134.14717102 C-70.12915336 134.15084771 -70.8425505 134.1545244 -71.57756573 134.1583125 C-73.95072516 134.16926127 -76.32384068 134.17317812 -78.69702148 134.17700195 C-80.40606319 134.18327343 -82.11510355 134.18992083 -83.82414246 134.19691467 C-89.4231167 134.21788191 -95.02209098 134.22831247 -100.62109375 134.23828125 C-102.55578182 134.24233201 -104.49046976 134.24644902 -106.42515755 134.25063133 C-115.52022934 134.2696695 -124.6152931 134.28390155 -133.71038097 134.2922433 C-144.1736302 134.30200083 -154.63666706 134.32828734 -165.09984154 134.36874419 C-173.20972151 134.39901442 -181.319541 134.4137226 -189.42947632 134.41702431 C-194.26234483 134.41936297 -199.09498612 134.42816748 -203.9277935 134.45348549 C-208.48253077 134.47696204 -213.03689436 134.48092178 -217.59167671 134.47072411 C-219.25074643 134.4702333 -220.90983579 134.47641686 -222.56884766 134.49028015 C-248.63592139 134.69567536 -272.30808094 125.32094998 -291.11328125 107.0390625 C-305.35875053 92.4838055 -315.89348983 70.91896076 -316.1875 50.375 C-316 47 -316 47 -315 46 C-312.64686445 45.92728259 -310.29166332 45.91629132 -307.9375 45.9375 C-306.64714844 45.94652344 -305.35679687 45.95554687 -304.02734375 45.96484375 C-303.02832031 45.97644531 -302.02929688 45.98804688 -301 46 C-300.82984375 47.09957031 -300.6596875 48.19914062 -300.484375 49.33203125 C-296.6808016 72.94577124 -286.84156897 91.37517379 -267.41015625 105.94140625 C-252.28947709 116.22169179 -236.08289478 118.30330474 -218.32958984 118.29052734 C-216.65951235 118.2965214 -214.98943762 118.30332895 -213.31936646 118.31088257 C-208.80661655 118.32846327 -204.29394263 118.33323466 -199.78116179 118.33451414 C-196.9537462 118.33594113 -194.1263496 118.34022112 -191.29893875 118.34550858 C-181.41200802 118.36398464 -171.52513102 118.37218248 -161.63818359 118.37060547 C-152.45984926 118.36940565 -143.28175067 118.39048285 -134.10347593 118.4220928 C-126.19309979 118.44835346 -118.28280018 118.45896864 -110.37238085 118.45769465 C-105.66141174 118.45718777 -100.95065224 118.46271783 -96.23972702 118.48405075 C-91.80230028 118.50359831 -87.36527951 118.50344638 -82.92783737 118.48901749 C-81.31231077 118.48694838 -79.69675763 118.49151487 -78.08127594 118.5037384 C-56.24645039 118.65806254 -37.02400967 112.77325936 -21.1015625 97.34838867 C-5.9011281 82.01106864 1.73772599 63.63030674 2.04052734 42.06982422 C1.91714734 35.7685252 1.15822076 29.17013094 -0.52734375 23.10131836 C-1.05273346 20.76555946 -1.12948237 18.66270305 -1.1328125 16.26953125 C-1.13410156 15.38458984 -1.13539063 14.49964844 -1.13671875 13.58789062 C-1.13285156 12.67201172 -1.12898438 11.75613281 -1.125 10.8125 C-1.12886719 9.88501953 -1.13273437 8.95753906 -1.13671875 8.00195312 C-1.13478516 6.6803418 -1.13478516 6.6803418 -1.1328125 5.33203125 C-1.13168457 4.52483643 -1.13055664 3.7176416 -1.12939453 2.88598633 C-1 1 -1 1 0 0 Z " fill="#B6E1E7" transform="translate(400,297)"/>
<path d="M0 0 C9.80101738 9.58911799 18.63981507 20.61210311 19.18041992 34.75390625 C19.08893162 40.21579817 18.67393141 45.58028986 18 51 C17.88736816 51.93859863 17.77473633 52.87719727 17.65869141 53.84423828 C14.79222649 75.39551819 5.23319726 93.5041614 -10 109 C-11.02867187 110.04800781 -11.02867187 110.04800781 -12.078125 111.1171875 C-18.30363625 117.04295191 -25.4610274 121.00049523 -33 125 C-33.73605469 125.40476562 -34.47210938 125.80953125 -35.23046875 126.2265625 C-37 127 -37 127 -40 127 C-39.6875 124.125 -39.6875 124.125 -39 121 C-35.13325346 118.42216897 -32.77771323 118.9517089 -28.27734375 119.22265625 C-27.52582031 119.14917969 -26.77429688 119.07570313 -26 119 C-24.22293791 116.33440687 -23.12451727 113.9719385 -22 111 C-20.515 111.99 -20.515 111.99 -19 113 C-16.47740939 111.02579865 -16.0070192 110.03254358 -15.3125 106.8125 C-15.209375 105.884375 -15.10625 104.95625 -15 104 C-13.35 104.33 -11.7 104.66 -10 105 C-7.54420303 101.31435916 -7.54420303 101.31435916 -7 97 C-5.5459375 96.5978125 -5.5459375 96.5978125 -4.0625 96.1875 C-2.5465625 95.5996875 -2.5465625 95.5996875 -1 95 C-0.505 93.515 -0.505 93.515 0 92 C0.66 92 1.32 92 2 92 C1.00864359 89.3726974 1.00864359 89.3726974 -1 87 C-4.62599422 86.58274322 -4.62599422 86.58274322 -8 87 C-8.2165625 88.175625 -8.2165625 88.175625 -8.4375 89.375 C-9 92 -9 92 -10 94 C-11.97888961 94.72693904 -13.97954558 95.39816251 -16 96 C-16.33 97.65 -16.66 99.3 -17 101 C-19.66666667 101.66666667 -22.33333333 102.33333333 -25 103 C-23.52620707 99.51436276 -21.58094043 97.48675238 -18.8125 94.9375 C-4.53041791 80.9305142 1.76417674 61.74692367 2.04052734 42.06982422 C1.91714734 35.7685252 1.15822076 29.17013094 -0.52734375 23.10131836 C-1.05273346 20.76555946 -1.12948237 18.66270305 -1.1328125 16.26953125 C-1.13474609 14.94211914 -1.13474609 14.94211914 -1.13671875 13.58789062 C-1.13285156 12.67201172 -1.12898438 11.75613281 -1.125 10.8125 C-1.13080078 9.4212793 -1.13080078 9.4212793 -1.13671875 8.00195312 C-1.13542969 7.12087891 -1.13414062 6.23980469 -1.1328125 5.33203125 C-1.13168457 4.52483643 -1.13055664 3.7176416 -1.12939453 2.88598633 C-1 1 -1 1 0 0 Z " fill="#98BAF9" transform="translate(400,297)"/>
<path d="M0 0 C3.6875 0.3125 3.6875 0.3125 5.9375 1.6875 C8.15640326 5.0158549 9.01565622 8.30738644 9.9765625 12.16796875 C10.21117187 12.87566406 10.44578125 13.58335937 10.6875 14.3125 C11.3475 14.6425 12.0075 14.9725 12.6875 15.3125 C12.8525 14.054375 13.0175 12.79625 13.1875 11.5 C13.32671875 10.43845703 13.32671875 10.43845703 13.46875 9.35546875 C13.740733 7.15778294 13.740733 7.15778294 13.6875 4.3125 C16.3275 4.3125 18.9675 4.3125 21.6875 4.3125 C22.0175 2.9925 22.3475 1.6725 22.6875 0.3125 C28.3125 0.0625 28.3125 0.0625 31.6875 2.3125 C32.05981445 5.16992188 32.05981445 5.16992188 32.05078125 8.78125 C32.05013672 10.07417969 32.04949219 11.36710937 32.04882812 12.69921875 C32.04052979 13.37388184 32.03223145 14.04854492 32.02368164 14.74365234 C32.0000886 16.80475951 32.00311974 18.8645734 32.00976562 20.92578125 C31.9542724 31.0457276 31.9542724 31.0457276 29.6875 33.3125 C27.5625 32.9375 27.5625 32.9375 25.6875 32.3125 C25.6875 28.3125 25.6875 24.3125 25.6875 20.3125 C25.3575 19.3225 25.0275 18.3325 24.6875 17.3125 C24.006875 18.4571875 24.006875 18.4571875 23.3125 19.625 C21.08467644 23.30947743 19.0181838 26.55279056 15.6875 29.3125 C13.125 29.875 13.125 29.875 10.6875 29.3125 C8.875 26.8125 8.875 26.8125 7.6875 24.3125 C7.048125 24.498125 6.40875 24.68375 5.75 24.875 C5.069375 25.019375 4.38875 25.16375 3.6875 25.3125 C3.3575 24.9825 3.0275 24.6525 2.6875 24.3125 C2.3575 26.9525 2.0275 29.5925 1.6875 32.3125 C-2.3125 32.3125 -2.3125 32.3125 -4.3125 31.3125 C-4.3125 23.3925 -4.3125 15.4725 -4.3125 7.3125 C-4.9725 7.3125 -5.6325 7.3125 -6.3125 7.3125 C-6.3125 6.3225 -6.3125 5.3325 -6.3125 4.3125 C-5.3225 4.3125 -4.3325 4.3125 -3.3125 4.3125 C-3.6425 3.3225 -3.9725 2.3325 -4.3125 1.3125 C-3.3125 0.3125 -3.3125 0.3125 0 0 Z M15.6875 7.3125 C15.6875 7.9725 15.6875 8.6325 15.6875 9.3125 C16.6775 8.9825 17.6675 8.6525 18.6875 8.3125 C17.6975 7.9825 16.7075 7.6525 15.6875 7.3125 Z M0.6875 10.3125 C1.0175 13.2825 1.3475 16.2525 1.6875 19.3125 C3.3375 19.6425 4.9875 19.9725 6.6875 20.3125 C6.6875 19.3225 6.6875 18.3325 6.6875 17.3125 C6.0275 17.3125 5.3675 17.3125 4.6875 17.3125 C4.6875 16.6525 4.6875 15.9925 4.6875 15.3125 C4.0275 15.3125 3.3675 15.3125 2.6875 15.3125 C2.6875 13.6625 2.6875 12.0125 2.6875 10.3125 C2.0275 10.3125 1.3675 10.3125 0.6875 10.3125 Z M23.6875 10.3125 C23.6875 10.9725 23.6875 11.6325 23.6875 12.3125 C24.3475 12.3125 25.0075 12.3125 25.6875 12.3125 C25.6875 11.6525 25.6875 10.9925 25.6875 10.3125 C25.0275 10.3125 24.3675 10.3125 23.6875 10.3125 Z M22.6875 12.3125 C22.6875 13.3025 22.6875 14.2925 22.6875 15.3125 C23.3475 14.9825 24.0075 14.6525 24.6875 14.3125 C24.0275 13.6525 23.3675 12.9925 22.6875 12.3125 Z M12.6875 16.3125 C13.0175 17.6325 13.3475 18.9525 13.6875 20.3125 C14.6775 19.3225 15.6675 18.3325 16.6875 17.3125 C15.3675 16.9825 14.0475 16.6525 12.6875 16.3125 Z " fill="#61DFE4" transform="translate(132.3125,361.6875)"/>
<path d="M0 0 C0.87205078 -0.01224609 1.74410156 -0.02449219 2.64257812 -0.03710938 C3.90038086 -0.04000977 3.90038086 -0.04000977 5.18359375 -0.04296875 C5.9511499 -0.04707764 6.71870605 -0.05118652 7.50952148 -0.05541992 C9.5625 0.1875 9.5625 0.1875 12.5625 2.1875 C12.5625 3.1775 12.5625 4.1675 12.5625 5.1875 C9.60071227 6.85860042 7.19178808 7.51432752 3.8125 7.8125 C3.01328125 7.88726562 2.2140625 7.96203125 1.390625 8.0390625 C0.48570312 8.11253906 0.48570312 8.11253906 -0.4375 8.1875 C-0.1075 9.1775 0.2225 10.1675 0.5625 11.1875 C-1.0875 11.8475 -2.7375 12.5075 -4.4375 13.1875 C0.5125 13.1875 5.4625 13.1875 10.5625 13.1875 C10.5625 14.1775 10.5625 15.1675 10.5625 16.1875 C12.5425 16.1875 14.5225 16.1875 16.5625 16.1875 C16.5625 17.8375 16.5625 19.4875 16.5625 21.1875 C14.9125 21.5175 13.2625 21.8475 11.5625 22.1875 C11.8925 22.5175 12.2225 22.8475 12.5625 23.1875 C12.5625 24.5075 12.5625 25.8275 12.5625 27.1875 C13.5525 27.1875 14.5425 27.1875 15.5625 27.1875 C15.2325 28.5075 14.9025 29.8275 14.5625 31.1875 C6.16203826 33.42762313 -4.37896192 35.42883583 -12.4375 31.1875 C-13.875 29.1875 -13.875 29.1875 -14.4375 27.1875 C-14.1075 26.5275 -13.7775 25.8675 -13.4375 25.1875 C-14.4275 24.8575 -15.4175 24.5275 -16.4375 24.1875 C-16.2725 23.445 -16.1075 22.7025 -15.9375 21.9375 C-15.34835075 17.51888063 -15.41143229 13.24740239 -15.5 8.796875 C-15.4375 6.1875 -15.4375 6.1875 -14.4375 4.1875 C-13.1175 4.1875 -11.7975 4.1875 -10.4375 4.1875 C-10.7675 3.1975 -11.0975 2.2075 -11.4375 1.1875 C-7.91593642 -0.57328179 -3.87858049 0.002854 0 0 Z M-10.4375 12.1875 C-10.4375 13.5075 -10.4375 14.8275 -10.4375 16.1875 C-9.7775 16.1875 -9.1175 16.1875 -8.4375 16.1875 C-8.4375 17.8375 -8.4375 19.4875 -8.4375 21.1875 C-9.4275 21.5175 -10.4175 21.8475 -11.4375 22.1875 C-10.4475 22.5175 -9.4575 22.8475 -8.4375 23.1875 C-8.1075 24.1775 -7.7775 25.1675 -7.4375 26.1875 C-2.4875 26.1875 2.4625 26.1875 7.5625 26.1875 C7.8925 25.5275 8.2225 24.8675 8.5625 24.1875 C5.9225 24.1875 3.2825 24.1875 0.5625 24.1875 C0.8925 22.8675 1.2225 21.5475 1.5625 20.1875 C3.2125 20.1875 4.8625 20.1875 6.5625 20.1875 C6.5625 19.8575 6.5625 19.5275 6.5625 19.1875 C3.2625 19.1875 -0.0375 19.1875 -3.4375 19.1875 C-3.7675 18.1975 -4.0975 17.2075 -4.4375 16.1875 C-7.0907489 13.4774388 -7.0907489 13.4774388 -10.4375 12.1875 Z " fill="#65DBE0" transform="translate(297.4375,361.8125)"/>
<path d="M0 0 C0.89589844 0.00322266 1.79179687 0.00644531 2.71484375 0.00976562 C4.12056641 0.02233398 4.12056641 0.02233398 5.5546875 0.03515625 C6.49957031 0.03966797 7.44445312 0.04417969 8.41796875 0.04882812 C10.75527137 0.06063268 13.09244811 0.07709866 15.4296875 0.09765625 C15.4296875 0.75765625 15.4296875 1.41765625 15.4296875 2.09765625 C16.0896875 2.09765625 16.7496875 2.09765625 17.4296875 2.09765625 C17.4296875 3.08765625 17.4296875 4.07765625 17.4296875 5.09765625 C14.36722003 6.88175427 12.20889477 7.32645646 8.6796875 7.22265625 C7.88046875 7.20460938 7.08125 7.1865625 6.2578125 7.16796875 C5.65453125 7.14476562 5.05125 7.1215625 4.4296875 7.09765625 C4.708125 8.05671875 4.708125 8.05671875 4.9921875 9.03515625 C5.1365625 9.71578125 5.2809375 10.39640625 5.4296875 11.09765625 C4.4296875 12.09765625 4.4296875 12.09765625 2.14453125 12.1953125 C0.76974609 12.17791016 0.76974609 12.17791016 -0.6328125 12.16015625 C-1.55191406 12.15113281 -2.47101563 12.14210938 -3.41796875 12.1328125 C-4.12824219 12.12121094 -4.83851563 12.10960937 -5.5703125 12.09765625 C-5.07917969 13.00644531 -5.07917969 13.00644531 -4.578125 13.93359375 C-3.38444214 16.49677322 -3.42305027 18.2996738 -3.5703125 21.09765625 C-3.5703125 21.75765625 -3.5703125 22.41765625 -3.5703125 23.09765625 C-0.72417226 25.94379649 2.23337892 25.55344701 6.0546875 25.72265625 C7.11429687 25.78066406 7.11429687 25.78066406 8.1953125 25.83984375 C9.93967274 25.93413349 11.68464441 26.01698516 13.4296875 26.09765625 C13.4296875 25.43765625 13.4296875 24.77765625 13.4296875 24.09765625 C11.4496875 24.09765625 9.4696875 24.09765625 7.4296875 24.09765625 C7.4296875 22.77765625 7.4296875 21.45765625 7.4296875 20.09765625 C5.4496875 19.43765625 3.4696875 18.77765625 1.4296875 18.09765625 C1.0996875 16.44765625 0.7696875 14.79765625 0.4296875 13.09765625 C5.3796875 13.09765625 10.3296875 13.09765625 15.4296875 13.09765625 C15.7596875 13.75765625 16.0896875 14.41765625 16.4296875 15.09765625 C18.31733653 15.7823829 18.31733653 15.7823829 20.4921875 16.22265625 C21.22566406 16.39023437 21.95914063 16.5578125 22.71484375 16.73046875 C23.28074219 16.85164063 23.84664063 16.9728125 24.4296875 17.09765625 C24.4296875 18.41765625 24.4296875 19.73765625 24.4296875 21.09765625 C21.05151325 21.94219981 18.75503507 22.20610544 15.4296875 21.09765625 C15.4296875 21.75765625 15.4296875 22.41765625 15.4296875 23.09765625 C16.7496875 23.42765625 18.0696875 23.75765625 19.4296875 24.09765625 C19.7596875 26.40765625 20.0896875 28.71765625 20.4296875 31.09765625 C11.67510692 33.4717798 1.90631684 35.05341661 -6.5703125 31.09765625 C-6.5703125 30.43765625 -6.5703125 29.77765625 -6.5703125 29.09765625 C-7.5603125 28.76765625 -8.5503125 28.43765625 -9.5703125 28.09765625 C-8.9103125 27.76765625 -8.2503125 27.43765625 -7.5703125 27.09765625 C-7.5703125 26.10765625 -7.5703125 25.11765625 -7.5703125 24.09765625 C-8.5603125 23.76765625 -9.5503125 23.43765625 -10.5703125 23.09765625 C-10.62482964 21.0562923 -10.66333735 19.01449769 -10.6953125 16.97265625 C-10.71851563 15.83570313 -10.74171875 14.69875 -10.765625 13.52734375 C-10.56406294 9.98791399 -10.018827 7.33043364 -8.5703125 4.09765625 C-7.5803125 3.76765625 -6.5903125 3.43765625 -5.5703125 3.09765625 C-5.9003125 2.43765625 -6.2303125 1.77765625 -6.5703125 1.09765625 C-4.16971433 -0.10264283 -2.67670601 -0.01694118 0 0 Z " fill="#66DBE1" transform="translate(256.5703125,361.90234375)"/>
<path d="M0 0 C0.35191406 0.96679688 0.35191406 0.96679688 0.7109375 1.953125 C1.81161073 4.2077908 1.81161073 4.2077908 4.1640625 4.609375 C4.97617188 4.65578125 5.78828125 4.7021875 6.625 4.75 C7.85089844 4.83507812 7.85089844 4.83507812 9.1015625 4.921875 C9.72804687 4.94765625 10.35453125 4.9734375 11 5 C11 5.99 11 6.98 11 8 C8.69 8 6.38 8 4 8 C4.67675781 8.61488281 4.67675781 8.61488281 5.3671875 9.2421875 C7.10632693 11.11446679 8.04427074 12.81887693 9.125 15.125 C10.28130007 17.75882236 10.28130007 17.75882236 12 20 C13.51055735 15.46832794 12.96332412 10.99164639 12.83984375 6.25 C13 3 13 3 15 0 C17.625 -0.1875 17.625 -0.1875 20 0 C19.67 1.32 19.34 2.64 19 4 C19.99 4.33 20.98 4.66 22 5 C21 8 21 8 20 9 C19.92741554 11.49055422 20.0036364 13.96636497 20.0625 16.45703125 C20.00446422 18.81836207 19.57203015 20.72720162 19 23 C19.33 23.33 19.66 23.66 20 24 C20.04080783 25.99958364 20.04254356 28.00045254 20 30 C19.34 30 18.68 30 18 30 C18 30.66 18 31.32 18 32 C15.1875 32.625 15.1875 32.625 12 33 C11.01 32.34 10.02 31.68 9 31 C8.8125 28.375 8.8125 28.375 9 26 C8.113125 26.144375 7.22625 26.28875 6.3125 26.4375 C3 26 3 26 1.48828125 24.44140625 C0.24147524 22.66586875 -0.91657766 20.87921043 -2 19 C-1.98839844 19.84304688 -1.97679687 20.68609375 -1.96484375 21.5546875 C-1.95130859 23.19824219 -1.95130859 23.19824219 -1.9375 24.875 C-1.92589844 25.96554687 -1.91429687 27.05609375 -1.90234375 28.1796875 C-2 31 -2 31 -3 33 C-5.16874252 32.49396008 -6.99967627 32.00016187 -9 31 C-9.07408587 26.90666095 -9.1285704 22.81358067 -9.16479492 18.71972656 C-9.17989358 17.32675378 -9.20037444 15.93382862 -9.22631836 14.54101562 C-9.26265122 12.54057115 -9.27811192 10.53978173 -9.29296875 8.5390625 C-9.3086792 7.33459473 -9.32438965 6.13012695 -9.34057617 4.88916016 C-9.22818604 3.9357373 -9.1157959 2.98231445 -9 2 C-5.5647952 -0.29013653 -4.014669 -0.17842973 0 0 Z M-2 10 C-2 12.31 -2 14.62 -2 17 C-0.68 17 0.64 17 2 17 C1.39816251 14.97954558 0.72693904 12.97888961 0 11 C-0.66 10.67 -1.32 10.34 -2 10 Z " fill="#62DDE2" transform="translate(219,362)"/>
<path d="M0 0 C1 1 1 1 1.0625 4.0625 C1.041875 5.031875 1.02125 6.00125 1 7 C1.99 7.33 2.98 7.66 4 8 C4 9.65 4 11.3 4 13 C4.66 13 5.32 13 6 13 C8.57616518 19.2638737 10.94235079 25.54646385 13 32 C10.6875 32.625 10.6875 32.625 8 33 C4.6070484 30.73803226 4.58938467 29.88115147 3.6640625 26.1328125 C2.59463498 22.69806295 0.88419517 19.60825054 -0.78125 16.4296875 C-2.00153547 13.99693891 -3.02401958 11.53935647 -4 9 C-4.99 12.3 -5.98 15.6 -7 19 C-5.02 19.33 -3.04 19.66 -1 20 C-1.66 20.33 -2.32 20.66 -3 21 C-3 21.66 -3 22.32 -3 23 C-2.34 23 -1.68 23 -1 23 C-1 23.99 -1 24.98 -1 26 C-3.97 26.33 -6.94 26.66 -10 27 C-10.99 29.475 -10.99 29.475 -12 32 C-15.465 32.495 -15.465 32.495 -19 33 C-19.33 32.01 -19.66 31.02 -20 30 C-19.38125 28.9790625 -19.38125 28.9790625 -18.75 27.9375 C-17.17623517 25.29582331 -16.43839737 23.35451125 -15.625 20.4375 C-9.55738788 -0.83107721 -9.55738788 -0.83107721 0 0 Z " fill="#64DDE2" transform="translate(189,362)"/>
<path d="M0 0 C1 1 1 1 1.0625 4.0625 C1.041875 5.031875 1.02125 6.00125 1 7 C1.99 7.33 2.98 7.66 4 8 C4 9.65 4 11.3 4 13 C4.66 13 5.32 13 6 13 C6.53012738 14.28788008 7.0488329 15.58046678 7.5625 16.875 C7.85253906 17.59429687 8.14257812 18.31359375 8.44140625 19.0546875 C9 21 9 21 8 23 C8.66 23 9.32 23 10 23 C11.0625 25.375 11.0625 25.375 12 28 C11.67 28.66 11.34 29.32 11 30 C11.66 30 12.32 30 13 30 C13 30.66 13 31.32 13 32 C10.6875 32.625 10.6875 32.625 8 33 C4.6070484 30.73803226 4.58938467 29.88115147 3.6640625 26.1328125 C2.59463498 22.69806295 0.88419517 19.60825054 -0.78125 16.4296875 C-2.00153547 13.99693891 -3.02401958 11.53935647 -4 9 C-4.66 12.3 -5.32 15.6 -6 19 C-4.35 19.33 -2.7 19.66 -1 20 C-1 20.99 -1 21.98 -1 23 C-0.34 22.67 0.32 22.34 1 22 C1 23.32 1 24.64 1 26 C-2.63 26.33 -6.26 26.66 -10 27 C-10.99 29.475 -10.99 29.475 -12 32 C-15.465 32.495 -15.465 32.495 -19 33 C-19.20086443 29.28400809 -19.1519437 28.22791555 -17 25 C-16.521762 23.72285575 -16.08838621 22.42849502 -15.6875 21.125 C-14.38008036 17.08991807 -12.97774348 13.10115062 -11.5 9.125 C-10.89671875 7.48917969 -10.89671875 7.48917969 -10.28125 5.8203125 C-7.83053738 0.42575606 -5.91560056 -0.51440005 0 0 Z " fill="#67DEE3" transform="translate(336,362)"/>
<path d="M0 0 C3.45457866 0.40169519 4.49290349 1.71149673 6.6875 4.3125 C6.3575 5.3025 6.0275 6.2925 5.6875 7.3125 C9.06212715 6.76526317 10.76985 6.2576 13.6875 4.3125 C16.875 4.1875 16.875 4.1875 19.6875 4.3125 C20.0175 2.9925 20.3475 1.6725 20.6875 0.3125 C23.1625 0.8075 23.1625 0.8075 25.6875 1.3125 C25.6875 5.22950798 25.52133719 6.12741435 23.6875 9.3125 C23.1925 10.199375 22.6975 11.08625 22.1875 12 C20.6875 14.3125 20.6875 14.3125 18.6875 15.3125 C19.6775 15.3125 20.6675 15.3125 21.6875 15.3125 C20.6875 18.3125 20.6875 18.3125 17.6875 20.3125 C15.55163322 23.51630017 15.45617825 24.33189967 15.5625 28 C15.58957031 29.21236328 15.58957031 29.21236328 15.6171875 30.44921875 C15.64039063 31.06410156 15.66359375 31.67898438 15.6875 32.3125 C13.875 32.9375 13.875 32.9375 11.6875 33.3125 C10.6975 32.6525 9.7075 31.9925 8.6875 31.3125 C8.359375 29.21875 8.359375 29.21875 8.4375 26.8125 C8.45296875 26.0184375 8.4684375 25.224375 8.484375 24.40625 C8.6875 22.3125 8.6875 22.3125 9.6875 20.3125 C8.6975 20.3125 7.7075 20.3125 6.6875 20.3125 C6.56375 19.4771875 6.56375 19.4771875 6.4375 18.625 C5.4598543 15.61059241 3.69440996 13.74511814 1.6875 11.3125 C0.625 9.375 0.625 9.375 -0.3125 7.3125 C-0.84875 6.24 -1.385 5.1675 -1.9375 4.0625 C-2.39125 3.155 -2.845 2.2475 -3.3125 1.3125 C-2.3125 0.3125 -2.3125 0.3125 0 0 Z M12.6875 9.3125 C12.6875 10.6325 12.6875 11.9525 12.6875 13.3125 C13.6775 12.3225 14.6675 11.3325 15.6875 10.3125 C14.6975 9.9825 13.7075 9.6525 12.6875 9.3125 Z M8.6875 11.3125 C9.6875 13.3125 9.6875 13.3125 9.6875 13.3125 Z M11.6875 13.3125 C12.6875 15.3125 12.6875 15.3125 12.6875 15.3125 Z " fill="#5EDCE3" transform="translate(359.3125,361.6875)"/>
<path d="M0 0 C4.95 0 9.9 0 15 0 C15.33 0.66 15.66 1.32 16 2 C17.88764903 2.68472665 17.88764903 2.68472665 20.0625 3.125 C20.79597656 3.29257812 21.52945312 3.46015625 22.28515625 3.6328125 C22.85105469 3.75398438 23.41695313 3.87515625 24 4 C24 5.32 24 6.64 24 8 C20.62182575 8.84454356 18.32534757 9.10844919 15 8 C15 8.66 15 9.32 15 10 C16.32 10.33 17.64 10.66 19 11 C18.25 12.9375 18.25 12.9375 17 15 C14.875 15.75 14.875 15.75 13 16 C13 14.35 13 12.7 13 11 C11.02 11 9.04 11 7 11 C7 9.68 7 8.36 7 7 C5.02 6.34 3.04 5.68 1 5 C0.67 3.35 0.34 1.7 0 0 Z " fill="#52E8EB" transform="translate(257,375)"/>
<path d="M0 0 C0.33 0 0.66 0 1 0 C1 22.77 1 45.54 1 69 C0.01 69 -0.98 69 -2 69 C-4.04296875 66.48046875 -4.04296875 66.48046875 -6.1875 63.1875 C-6.90292969 62.10855469 -7.61835938 61.02960938 -8.35546875 59.91796875 C-10 57 -10 57 -10 54 C-7.69 54.33 -5.38 54.66 -3 55 C-3.99 55.495 -3.99 55.495 -5 56 C-5 56.99 -5 57.98 -5 59 C-4.01 59 -3.02 59 -2 59 C-0.70383872 56.40767744 -0.88695039 54.55053747 -0.90234375 51.64819336 C-0.90564697 50.53041 -0.9089502 49.41262665 -0.91235352 48.26097107 C-0.92065186 47.04949905 -0.9289502 45.83802704 -0.9375 44.58984375 C-0.94128662 43.3520668 -0.94507324 42.11428986 -0.94897461 40.83900452 C-0.96123096 36.87180685 -0.97966233 32.90466215 -1 28.9375 C-1.02673477 23.71745786 -1.0465183 18.49743039 -1.0625 13.27734375 C-1.07079834 12.0638475 -1.07909668 10.85035126 -1.08764648 9.6000824 C-1.09094971 8.4854512 -1.09425293 7.37082001 -1.09765625 6.22241211 C-1.10551147 4.74254066 -1.10551147 4.74254066 -1.11352539 3.23277283 C-1 1 -1 1 0 0 Z " fill="#93B0F3" transform="translate(417,162)"/>
<path d="M0 0 C1.36125 0.12375 1.36125 0.12375 2.75 0.25 C3.245 1.735 3.245 1.735 3.75 3.25 C3.75 2.59 3.75 1.93 3.75 1.25 C7.79916379 -0.09972126 10.66257012 0.36623138 14.75 1.25 C12.36619611 3.63380389 10.79762611 3.96021161 7.5625 4.8125 C6.17998047 5.18568359 6.17998047 5.18568359 4.76953125 5.56640625 C-2.79243818 7.27836569 -10.01243281 7.38251539 -17.74609375 7.34765625 C-19.52911644 7.34553383 -19.52911644 7.34553383 -21.34815979 7.34336853 C-25.12796594 7.33779114 -28.90771189 7.32524275 -32.6875 7.3125 C-35.2571606 7.30748208 -37.82682213 7.30291968 -40.39648438 7.29882812 C-46.68100997 7.28782911 -52.96550068 7.2711135 -59.25 7.25 C-58.92 6.59 -58.59 5.93 -58.25 5.25 C-55.5546875 4.80078125 -55.5546875 4.80078125 -52.125 4.5625 C-51.00867188 4.47613281 -49.89234375 4.38976562 -48.7421875 4.30078125 C-45.25 4.25 -45.25 4.25 -41.98950195 4.74560547 C-36.224944 5.52314524 -30.49535272 5.28201732 -24.69702148 5.11791992 C-22.55773823 5.06237637 -20.41909305 5.0340307 -18.27929688 5.00585938 C-16.91141387 4.97042676 -15.54357167 4.93337394 -14.17578125 4.89453125 C-12.94255127 4.86721924 -11.70932129 4.83990723 -10.4387207 4.81176758 C-5.67394687 3.97234146 -4.74310036 0.36485387 0 0 Z " fill="#A1C7F0" transform="translate(343.25,423.75)"/>
<path d="M0 0 C2.625 -0.1875 2.625 -0.1875 5 0 C4.67 1.32 4.34 2.64 4 4 C4.99 4.33 5.98 4.66 7 5 C6 8 6 8 5 9 C4.92741554 11.49055422 5.0036364 13.96636497 5.0625 16.45703125 C5.00446422 18.81836207 4.57203015 20.72720162 4 23 C4.33 23.33 4.66 23.66 5 24 C5.04080783 25.99958364 5.04254356 28.00045254 5 30 C4.34 30 3.68 30 3 30 C3 30.66 3 31.32 3 32 C0.1875 32.625 0.1875 32.625 -3 33 C-3.99 32.34 -4.98 31.68 -6 31 C-5.505 29.515 -5.505 29.515 -5 28 C-4.34 28 -3.68 28 -3 28 C-3 28.66 -3 29.32 -3 30 C-1.68 30 -0.36 30 1 30 C2.12516085 28.16715557 2.12516085 28.16715557 3 26 C2.67 25.01 2.34 24.02 2 23 C1.34 23 0.68 23 0 23 C-1.26781912 19.19654265 -1.43895138 15.4701499 -1.6875 11.5 C-1.74744141 10.72785156 -1.80738281 9.95570313 -1.86914062 9.16015625 C-2.23639073 3.3545861 -2.23639073 3.3545861 0 0 Z " fill="#6CD8DC" transform="translate(234,362)"/>
<path d="M0 0 C13.1622921 6.11727672 22.70074121 21.38062394 29 34 C29 34.66 29 35.32 29 36 C28.01 36 27.02 36 26 36 C25.01 33.03 24.02 30.06 23 27 C22.34 27 21.68 27 21 27 C20.34 26.01 19.68 25.02 19 24 C16.44816596 22.79549696 16.44816596 22.79549696 14 22 C14 19.69 14 17.38 14 15 C11.69 15 9.38 15 7 15 C5.68 11.37 4.36 7.74 3 4 C2.01 4.66 1.02 5.32 0 6 C-1.125 2.25 -1.125 2.25 0 0 Z " fill="#9AB9F3" transform="translate(379,88)"/>
<path d="M0 0 C0.33 0.66 0.66 1.32 1 2 C3.02463255 2.65213292 3.02463255 2.65213292 5 3 C5 3.99 5 4.98 5 6 C5.99 6.33 6.98 6.66 8 7 C8.33 7.33 8.66 7.66 9 8 C9.66 7.01 10.32 6.02 11 5 C11.33 6.98 11.66 8.96 12 11 C12.66 11 13.32 11 14 11 C14.66 12.32 15.32 13.64 16 15 C15.34 15 14.68 15 14 15 C13.67 16.32 13.34 17.64 13 19 C11.68 18.67 10.36 18.34 9 18 C9 17.34 9 16.68 9 16 C8.01 16 7.02 16 6 16 C6 15.34 6 14.68 6 14 C4.35 14 2.7 14 1 14 C0.855625 12.88625 0.71125 11.7725 0.5625 10.625 C0.21627965 7.17857953 0.21627965 7.17857953 -1 5 C-0.72057545 3.32345271 -0.39171753 1.65391846 0 0 Z " fill="#5CE1E9" transform="translate(222,374)"/>
<path d="M0 0 C0 0.99 0 1.98 0 3 C-1.32 2.67 -2.64 2.34 -4 2 C-5.9451 4.91765 -6.45276317 6.62537285 -7 10 C-7.99 10.33 -8.98 10.66 -10 11 C-10 12.32 -10 13.64 -10 15 C-10.66 15 -11.32 15 -12 15 C-12.33 18.3 -12.66 21.6 -13 25 C-9.37 25 -5.74 25 -2 25 C-1.67 24.34 -1.34 23.68 -1 23 C-1 23.99 -1 24.98 -1 26 C-3.97 26.33 -6.94 26.66 -10 27 C-10.99 29.475 -10.99 29.475 -12 32 C-15.465 32.495 -15.465 32.495 -19 33 C-19.33 32.01 -19.66 31.02 -20 30 C-19.38125 28.9790625 -19.38125 28.9790625 -18.75 27.9375 C-17.17623517 25.29582331 -16.43839737 23.35451125 -15.625 20.4375 C-9.61167731 -0.64077849 -9.61167731 -0.64077849 0 0 Z " fill="#77DCDF" transform="translate(189,362)"/>
<path d="M0 0 C2.29141286 -0.05384521 4.58318188 -0.09272087 6.875 -0.125 C8.78925781 -0.15980469 8.78925781 -0.15980469 10.7421875 -0.1953125 C14 0 14 0 16 2 C16.99 1.67 17.98 1.34 19 1 C19.99 1.99 20.98 2.98 22 4 C22 3.34 22 2.68 22 2 C22.99 2.33 23.98 2.66 25 3 C25.33 3.99 25.66 4.98 26 6 C29.00598158 7.33599181 31.09147996 8.14345053 34.375 7.625 C34.91125 7.41875 35.4475 7.2125 36 7 C36.66 8.32 37.32 9.64 38 11 C38.99 11 39.98 11 41 11 C41.495 12.98 41.495 12.98 42 15 C42.99 15 43.98 15 45 15 C45.28875 15.969375 45.5775 16.93875 45.875 17.9375 C46.64214682 21.10664203 46.64214682 21.10664203 49 22 C45.58210666 21.40262484 43.83599345 20.20800225 41.25 17.9375 C31.1914791 9.93677798 19.80173518 5.4254609 7.328125 2.7890625 C4.54969904 2.13032771 2.44801747 1.42182833 0 0 Z " fill="#A3C2EE" transform="translate(327,81)"/>
<path d="M0 0 C0.66 0.66 1.32 1.32 2 2 C0.9275 2.103125 -0.145 2.20625 -1.25 2.3125 C-8.3210162 3.19637703 -15.69105369 4.59865503 -22 8 C-29.05882353 11 -29.05882353 11 -33 11 C-33 11.66 -33 12.32 -33 13 C-34.175625 13.433125 -34.175625 13.433125 -35.375 13.875 C-38.09671632 14.84912254 -38.09671632 14.84912254 -40 17 C-41.32 17 -42.64 17 -44 17 C-44 17.66 -44 18.32 -44 19 C-46.25 21.1875 -46.25 21.1875 -49 23 C-51.171875 22.61328125 -51.171875 22.61328125 -53 22 C-38.69929305 11.42139486 -18.72268204 -1.79917665 0 0 Z " fill="#C8EBDF" transform="translate(172,67)"/>
<path d="M0 0 C1.53815394 4.61446183 1.18443162 9.22980303 1.1875 14.0625 C1.19974609 15.08150391 1.21199219 16.10050781 1.22460938 17.15039062 C1.22750977 18.60928711 1.22750977 18.60928711 1.23046875 20.09765625 C1.23457764 20.98976807 1.23868652 21.88187988 1.24291992 22.80102539 C1 25 1 25 -1 27 C-3.125 26.625 -3.125 26.625 -5 26 C-5 14 -5 14 -3 11 C-2.67 12.65 -2.34 14.3 -2 16 C-1.34 16 -0.68 16 0 16 C-0.66 12.7 -1.32 9.4 -2 6 C-2.99 6.66 -3.98 7.32 -5 8 C-5 6.68 -5 5.36 -5 4 C-5.66 4 -6.32 4 -7 4 C-7.33 4.66 -7.66 5.32 -8 6 C-8 5.01 -8 4.02 -8 3 C-5.36 2.67 -2.72 2.34 0 2 C0 1.34 0 0.68 0 0 Z " fill="#6ADADF" transform="translate(163,368)"/>
<path d="M0 0 C0.66 0 1.32 0 2 0 C5.67792032 8.96422781 8.95827339 17.15252108 9 27 C7 24 7 24 7 22 C5.35 22.99 3.7 23.98 2 25 C1.93089052 21.544526 1.91825422 18.39237976 2.625 15 C3.0930817 11.25534636 2.09937168 8.57295797 1 5 C1.33 4.34 1.66 3.68 2 3 C1.01 2.67 0.02 2.34 -1 2 C-0.67 1.34 -0.34 0.68 0 0 Z " fill="#97B9F6" transform="translate(407,125)"/>
<path d="M0 0 C1.485 0.99 1.485 0.99 3 2 C3 2.66 3 3.32 3 4 C3.99 4 4.98 4 6 4 C6.66 5.32 7.32 6.64 8 8 C8.99 8 9.98 8 11 8 C11 8.99 11 9.98 11 11 C11.639375 11.165 12.27875 11.33 12.9375 11.5 C15 13 15 13 15.48828125 14.9140625 C15.7275978 16.93575155 15.86893028 18.96841939 16 21 C16.99 21.33 17.98 21.66 19 22 C19 22.99 19 23.98 19 25 C19.99 25.33 20.98 25.66 22 26 C21.67 28.31 21.34 30.62 21 33 C18.54909509 29.96691533 16.94036848 26.91059975 15.3125 23.375 C12.28301601 17.18760004 8.45978083 12.20909624 4 7 C0 2.2543554 0 2.2543554 0 0 Z " fill="#A2BEF2" transform="translate(377,104)"/>
<path d="M0 0 C0.82741699 0.01047363 1.65483398 0.02094727 2.50732422 0.03173828 C3.40322266 0.03818359 4.29912109 0.04462891 5.22216797 0.05126953 C6.62789063 0.07640625 6.62789063 0.07640625 8.06201172 0.10205078 C9.00689453 0.11107422 9.95177734 0.12009766 10.92529297 0.12939453 C13.26278464 0.15300556 15.59977295 0.18593562 17.93701172 0.22705078 C17.93701172 0.88705078 17.93701172 1.54705078 17.93701172 2.22705078 C18.59701172 2.22705078 19.25701172 2.22705078 19.93701172 2.22705078 C19.93701172 3.21705078 19.93701172 4.20705078 19.93701172 5.22705078 C16.87454425 7.0111488 14.71621899 7.455851 11.18701172 7.35205078 C10.38779297 7.33400391 9.58857422 7.31595703 8.76513672 7.29736328 C8.16185547 7.27416016 7.55857422 7.25095703 6.93701172 7.22705078 C6.60701172 8.21705078 6.27701172 9.20705078 5.93701172 10.22705078 C6.18701172 7.91455078 6.18701172 7.91455078 6.93701172 5.22705078 C8.25701172 4.23705078 9.57701172 3.24705078 10.93701172 2.22705078 C5.98701172 2.22705078 1.03701172 2.22705078 -4.06298828 2.22705078 C-2.06298828 0.22705078 -2.06298828 0.22705078 0 0 Z " fill="#68DADF" transform="translate(254.06298828125,361.77294921875)"/>
<path d="M0 0 C1.54542837 3.09085673 0.59315658 5.67832315 0 9 C-1 11 -1 11 -4.0625 12.125 C-5.031875 12.41375 -6.00125 12.7025 -7 13 C-7.33 14.65 -7.66 16.3 -8 18 C-10.66666667 18.66666667 -13.33333333 19.33333333 -16 20 C-14.50533204 16.45915558 -12.46451644 14.3151643 -9.6875 11.6875 C-5.92455444 8.02166271 -2.88799749 4.37857684 0 0 Z " fill="#9DC2F0" transform="translate(391,380)"/>
<path d="M0 0 C3.78083382 0.5986064 7.50815646 0.74982413 11.32641602 0.83935547 C12.44567978 0.87052711 12.44567978 0.87052711 13.58755493 0.90232849 C15.9509436 0.96726152 18.31443516 1.02644493 20.67797852 1.08544922 C22.28866587 1.12868806 23.89934315 1.17230399 25.51000977 1.21630859 C29.44089623 1.32288448 33.37188529 1.42430713 37.30297852 1.52294922 C37.30297852 1.85294922 37.30297852 2.18294922 37.30297852 2.52294922 C19.81297852 2.52294922 2.32297852 2.52294922 -15.69702148 2.52294922 C-15.36702148 1.86294922 -15.03702148 1.20294922 -14.69702148 0.52294922 C-12.18530273 0.07373047 -12.18530273 0.07373047 -9.00952148 -0.16455078 C-7.9744043 -0.25091797 -6.93928711 -0.33728516 -5.87280273 -0.42626953 C-2.69702148 -0.47705078 -2.69702148 -0.47705078 0 0 Z " fill="#ACCBE2" transform="translate(299.697021484375,428.47705078125)"/>
<path d="M0 0 C1.65 0 3.3 0 5 0 C-2 7 -9 14 -16 21 C-16 20.34 -16 19.68 -16 19 C-16.66 19 -17.32 19 -18 19 C-18 18.01 -18 17.02 -18 16 C-17.236875 15.71125 -16.47375 15.4225 -15.6875 15.125 C-12.84970692 14.03730987 -12.84970692 14.03730987 -10 12 C-10 11.01 -10 10.02 -10 9 C-8.5390625 7.61328125 -8.5390625 7.61328125 -6.625 6.3125 C-5.99851562 5.87550781 -5.37203125 5.43851562 -4.7265625 4.98828125 C-3 4 -3 4 -1 4 C-0.67 2.68 -0.34 1.36 0 0 Z " fill="#CBF2DB" transform="translate(130,96)"/>
<path d="M0 0 C0.433125 0.9590625 0.433125 0.9590625 0.875 1.9375 C1.82823451 4.15206079 1.82823451 4.15206079 4 5 C6.28003407 8.28324906 7.43518386 11.04628701 8 15 C6.35 15.33 4.7 15.66 3 16 C0.79772118 12.69658177 0.02202664 9.81556611 -1 6 C-1.33 5.01 -1.66 4.02 -2 3 C-1.34 2.01 -0.68 1.02 0 0 Z " fill="#67D9DF" transform="translate(194,379)"/>
<path d="M0 0 C4.95 0 9.9 0 15 0 C13.68 0.99 12.36 1.98 11 3 C11 3.99 11 4.98 11 6 C9.54207116 6.05399736 8.08357288 6.09279177 6.625 6.125 C5.81289063 6.14820313 5.00078125 6.17140625 4.1640625 6.1953125 C2 6 2 6 0 4 C0 2.68 0 1.36 0 0 Z " fill="#61DDE3" transform="translate(257,375)"/>
<path d="M0 0 C1.65 0.33 3.3 0.66 5 1 C5 2.32 5 3.64 5 5 C7.64 4.67 10.28 4.34 13 4 C13 4.66 13 5.32 13 6 C11.44033408 6.36644578 9.87707349 6.71760862 8.3125 7.0625 C7.44238281 7.25972656 6.57226562 7.45695312 5.67578125 7.66015625 C2.83998724 8.02032279 0.75210018 7.70909969 -2 7 C-2.33 5.68 -2.66 4.36 -3 3 C-2.01 2.67 -1.02 2.34 0 2 C0 1.34 0 0.68 0 0 Z " fill="#60EDF2" transform="translate(285,367)"/>
<path d="M0 0 C2.91227269 3.28804981 4.49701212 5.59885603 5 10 C7.51083114 8.74458443 7.87125446 7.49936512 9 5 C10.0625 7.375 10.0625 7.375 11 10 C10.67 10.66 10.34 11.32 10 12 C10.66 12 11.32 12 12 12 C12 12.66 12 13.32 12 14 C9.6875 14.625 9.6875 14.625 7 15 C3.10777401 12.40518268 3.16205025 10.41579095 2 6 C1.34 5.01 0.68 4.02 0 3 C0 2.01 0 1.02 0 0 Z " fill="#6FD5D9" transform="translate(337,380)"/>
<path d="M0 0 C0.66 0.33 1.32 0.66 2 1 C1.01 2.485 1.01 2.485 0 4 C-0.24107326 6.28648848 -0.24107326 6.28648848 -0.125 8.6875 C-0.10695313 9.49574219 -0.08890625 10.30398438 -0.0703125 11.13671875 C-0.04710937 11.75160156 -0.02390625 12.36648438 0 13 C-1.8125 13.625 -1.8125 13.625 -4 14 C-4.99 13.34 -5.98 12.68 -7 12 C-7.29296875 9.8359375 -7.29296875 9.8359375 -7.1875 7.375 C-7.16042969 6.55773437 -7.13335937 5.74046875 -7.10546875 4.8984375 C-7.07066406 4.27195312 -7.03585937 3.64546875 -7 3 C-5.04783565 4.95216435 -4.15173355 6.53199953 -3 9 C-3 7.02 -3 5.04 -3 3 C-2.01 2.67 -1.02 2.34 0 2 C0 1.34 0 0.68 0 0 Z " fill="#6ED3E0" transform="translate(375,381)"/>
<path d="M0 0 C3 1 3 1 5 3 C6.65438613 3.69658363 8.32254318 4.36096883 10 5 C11.34050052 5.65213539 12.67661368 6.31379969 14 7 C12.329375 7.2165625 12.329375 7.2165625 10.625 7.4375 C7.17857953 7.78372035 7.17857953 7.78372035 5 9 C2.375 8.0625 2.375 8.0625 0 7 C0 6.34 0 5.68 0 5 C-0.66 4.67 -1.32 4.34 -2 4 C-1.34 4 -0.68 4 0 4 C0 2.68 0 1.36 0 0 Z " fill="#67DEE1" transform="translate(250,386)"/>
<path d="M0 0 C3.23861303 1.44424635 5.61969163 3.25772247 8.25 5.625 C8.95640625 6.25664063 9.6628125 6.88828125 10.390625 7.5390625 C10.92171875 8.02117187 11.4528125 8.50328125 12 9 C11.67 9.66 11.34 10.32 11 11 C8.4375 11.625 8.4375 11.625 6 12 C5.01 9.36 4.02 6.72 3 4 C2.01 4.66 1.02 5.32 0 6 C-1.125 2.25 -1.125 2.25 0 0 Z " fill="#A5C4F6" transform="translate(379,88)"/>
<path d="M0 0 C0.33 1.32 0.66 2.64 1 4 C-1.97 3.505 -1.97 3.505 -5 3 C-6.98 5.97 -6.98 5.97 -9 9 C-8.01 8.67 -7.02 8.34 -6 8 C-4.89155081 11.32534757 -5.15545644 13.62182575 -6 17 C-6.33 17 -6.66 17 -7 17 C-7 15.02 -7 13.04 -7 11 C-8.65 11.66 -10.3 12.32 -12 13 C-11.57476184 11.39253944 -11.13429874 9.78910164 -10.6875 8.1875 C-10.44386719 7.29417969 -10.20023437 6.40085937 -9.94921875 5.48046875 C-7.89636974 0.11602792 -5.54004863 -0.36933658 0 0 Z " fill="#67DADC" transform="translate(336,362)"/>
<path d="M0 0 C1.73830497 3.00939753 2.251248 5.15942665 2.1875 8.625 C2.18105469 9.40101563 2.17460937 10.17703125 2.16796875 10.9765625 C2 13 2 13 1 15 C-1.16874252 14.49396008 -2.99967627 14.00016187 -5 13 C-4.67 11.02 -4.34 9.04 -4 7 C-3.01 7.33 -2.02 7.66 -1 8 C-0.67 5.36 -0.34 2.72 0 0 Z " fill="#6CD5D7" transform="translate(215,380)"/>
<path d="M0 0 C0 3.57811631 -0.86465142 4.26675381 -3 7 C-3.33 7.99 -3.66 8.98 -4 10 C-5.62890625 11.53515625 -5.62890625 11.53515625 -7.5625 13.0625 C-9.4710222 14.52753465 -9.4710222 14.52753465 -11 16 C-11 16.66 -11 17.32 -11 18 C-13.5 19.625 -13.5 19.625 -16 21 C-14.57642625 16.797793 -12.52379647 13.89402199 -9.6875 10.5 C-8.92824219 9.5821875 -8.16898437 8.664375 -7.38671875 7.71875 C-5.02516043 5.02866065 -2.5598056 2.50090742 0 0 Z " fill="#D6F5DF" transform="translate(115,93)"/>
<path d="M0 0 C1.65 0 3.3 0 5 0 C5.12375 0.804375 5.2475 1.60875 5.375 2.4375 C5.58125 3.283125 5.7875 4.12875 6 5 C6.66 5.33 7.32 5.66 8 6 C7 7 7 7 4.71484375 7.09765625 C3.34005859 7.08025391 3.34005859 7.08025391 1.9375 7.0625 C1.01839844 7.05347656 0.09929687 7.04445313 -0.84765625 7.03515625 C-1.55792969 7.02355469 -2.26820313 7.01195312 -3 7 C-2.690625 6.401875 -2.38125 5.80375 -2.0625 5.1875 C-0.89790296 2.91043228 -0.89790296 2.91043228 0 0 Z " fill="#5AE8ED" transform="translate(254,367)"/>
<path d="M0 0 C0 0.66 0 1.32 0 2 C-0.66 2 -1.32 2 -2 2 C-2 2.66 -2 3.32 -2 4 C-3.175625 4.433125 -3.175625 4.433125 -4.375 4.875 C-7.09671632 5.84912254 -7.09671632 5.84912254 -9 8 C-10.32 8 -11.64 8 -13 8 C-13 8.66 -13 9.32 -13 10 C-15.25 12.1875 -15.25 12.1875 -18 14 C-20.171875 13.61328125 -20.171875 13.61328125 -22 13 C-3.52777778 0 -3.52777778 0 0 0 Z " fill="#D2F0E2" transform="translate(141,76)"/>
<path d="M0 0 C-0.66 1.98 -1.32 3.96 -2 6 C-2.598125 5.67 -3.19625 5.34 -3.8125 5 C-6.05386471 3.79212012 -6.05386471 3.79212012 -9 4 C-9 4.66 -9 5.32 -9 6 C-11.64 6 -14.28 6 -17 6 C-17 5.34 -17 4.68 -17 4 C-14.54453034 3.13670227 -12.08621957 2.28410564 -9.625 1.4375 C-8.57699219 1.0672168 -8.57699219 1.0672168 -7.5078125 0.68945312 C-2.2265625 -1.11328125 -2.2265625 -1.11328125 0 0 Z " fill="#A2C4EF" transform="translate(360,410)"/>
<path d="M0 0 C1.65 0.33 3.3 0.66 5 1 C4.67 2.65 4.34 4.3 4 6 C3.34 6 2.68 6 2 6 C1.67 6.99 1.34 7.98 1 9 C0.34 9 -0.32 9 -1 9 C-1.33 8.34 -1.66 7.68 -2 7 C-2.66 7 -3.32 7 -4 7 C-2.79618552 4.50638429 -1.54571278 2.31856917 0 0 Z " fill="#5DE0E7" transform="translate(331,364)"/>
<path d="M0 0 C0.99 0 1.98 0 3 0 C4.37432457 3.81756824 3.67975039 7.07255329 3 11 C3.66 11.33 4.32 11.66 5 12 C4.34 12 3.68 12 3 12 C3 16.29 3 20.58 3 25 C3.66 25 4.32 25 5 25 C5.66 26.32 6.32 27.64 7 29 C4.525 28.01 4.525 28.01 2 27 C2 19.08 2 11.16 2 3 C1.34 3 0.68 3 0 3 C0 2.01 0 1.02 0 0 Z " fill="#7CDDDF" transform="translate(126,366)"/>
<path d="M0 0 C0.9075 0.103125 1.815 0.20625 2.75 0.3125 C2.75 1.3025 2.75 2.2925 2.75 3.3125 C1.43 2.9825 0.11 2.6525 -1.25 2.3125 C-3.1951 5.23015 -3.70276317 6.93787285 -4.25 10.3125 C-5.24 10.6425 -6.23 10.9725 -7.25 11.3125 C-7.58 11.9725 -7.91 12.6325 -8.25 13.3125 C-7.95437364 8.95201117 -7.71523117 6.13957764 -5.5625 2.3125 C-3.25 0.3125 -3.25 0.3125 0 0 Z " fill="#6DDAD9" transform="translate(186.25,361.6875)"/>
<path d="M0 0 C0.99 0.33 1.98 0.66 3 1 C2.67 1.66 2.34 2.32 2 3 C3.98 2.34 5.96 1.68 8 1 C8 1.66 8 2.32 8 3 C9.32 3.33 10.64 3.66 12 4 C11.25 5.9375 11.25 5.9375 10 8 C7.875 8.75 7.875 8.75 6 9 C6 7.35 6 5.7 6 4 C4.02 4 2.04 4 0 4 C0 2.68 0 1.36 0 0 Z " fill="#65E4E9" transform="translate(264,382)"/>
<path d="M0 0 C-0.33 0.99 -0.66 1.98 -1 3 C-1.66 3 -2.32 3 -3 3 C-3 3.66 -3 4.32 -3 5 C-4.98 5 -6.96 5 -9 5 C-9.33 4.01 -9.66 3.02 -10 2 C-9 0 -9 0 -7.25 -0.6875 C-4.60760177 -1.05449975 -2.57327078 -0.64331769 0 0 Z " fill="#59E2EC" transform="translate(335,382)"/>
<path d="M0 0 C3.08089673 2.77280706 4.68775452 5.06326356 6 9 C4.68 8.34 3.36 7.68 2 7 C1.34 9.97 0.68 12.94 0 16 C-0.33 16 -0.66 16 -1 16 C-1.02685095 13.52076199 -1.04676547 11.0418116 -1.0625 8.5625 C-1.07506836 7.50192383 -1.07506836 7.50192383 -1.08789062 6.41992188 C-1.09653588 4.61306441 -1.05220011 2.80612397 -1 1 C-0.67 0.67 -0.34 0.34 0 0 Z " fill="#90B3DE" transform="translate(400,297)"/>
<path d="M0 0 C0.33 0 0.66 0 1 0 C1 2.64 1 5.28 1 8 C3.64 8.33 6.28 8.66 9 9 C8.01 9.33 7.02 9.66 6 10 C6.33 12.31 6.66 14.62 7 17 C0.11165145 10.29292378 0.11165145 10.29292378 -0.1953125 6.73828125 C-0.17210937 5.93777344 -0.14890625 5.13726562 -0.125 4.3125 C-0.10695312 3.50425781 -0.08890625 2.69601562 -0.0703125 1.86328125 C-0.04710937 1.24839844 -0.02390625 0.63351562 0 0 Z " fill="#6DD9DB" transform="translate(216,371)"/>
<path d="M0 0 C0.66 0 1.32 0 2 0 C2 1.98 2 3.96 2 6 C1.34 6 0.68 6 0 6 C0 6.66 0 7.32 0 8 C-2.8125 8.625 -2.8125 8.625 -6 9 C-6.99 8.34 -7.98 7.68 -9 7 C-8.67 6.01 -8.34 5.02 -8 4 C-7.34 4 -6.68 4 -6 4 C-6 4.66 -6 5.32 -6 6 C-4.68 6 -3.36 6 -2 6 C-1.34 4.02 -0.68 2.04 0 0 Z " fill="#7BE0E0" transform="translate(237,386)"/>
<path d="M0 0 C0.33 1.65 0.66 3.3 1 5 C-0.03125 5.144375 -1.0625 5.28875 -2.125 5.4375 C-5.42549813 5.91660457 -8.71268341 6.43875083 -12 7 C-11.67 6.01 -11.34 5.02 -11 4 C-9.68 4 -8.36 4 -7 4 C-6.67 3.34 -6.34 2.68 -6 2 C-3.85118612 0.75230162 -2.50320403 0 0 0 Z " fill="#5AE0E2" transform="translate(312,379)"/>
<path d="M0 0 C0.66 1.32 1.32 2.64 2 4 C1.505 4.53625 1.01 5.0725 0.5 5.625 C-1.37489544 8.59358445 -1.23501425 10.55312427 -1 14 C-4 12 -4 12 -4.6875 8.875 C-4.8421875 7.451875 -4.8421875 7.451875 -5 6 C-4.01 6 -3.02 6 -2 6 C-2 4.68 -2 3.36 -2 2 C-1.34 2 -0.68 2 0 2 C0 1.34 0 0.68 0 0 Z " fill="#52E7EB" transform="translate(374,377)"/>
<path d="M0 0 C2.49505962 2.49505962 2.35948376 3.67328888 2.625 7.125 C2.69976562 8.03507812 2.77453125 8.94515625 2.8515625 9.8828125 C2.90054688 10.58148438 2.94953125 11.28015625 3 12 C2.34 12 1.68 12 1 12 C0.9175 11.4225 0.835 10.845 0.75 10.25 C-0.2026631 7.39201069 -1.86053074 6.07045412 -4 4 C-4 3.34 -4 2.68 -4 2 C-3.01 2.33 -2.02 2.66 -1 3 C-0.67 2.01 -0.34 1.02 0 0 Z " fill="#5CE6E7" transform="translate(160,372)"/>
<path d="M0 0 C0 0.66 0 1.32 0 2 C0.66 2.33 1.32 2.66 2 3 C3.0194119 3.98020375 4.02246356 4.97803008 5 6 C4.34 6 3.68 6 3 6 C2.67 6.66 2.34 7.32 2 8 C1.01 6.68 0.02 5.36 -1 4 C-2.32 5.32 -3.64 6.64 -5 8 C-4.74438677 5.6568787 -4.40729228 3.32156597 -4 1 C-2 0 -2 0 0 0 Z " fill="#9FBAED" transform="translate(321,153)"/>
<path d="M0 0 C1.57159226 3.14318453 0.04018399 5.92933389 -0.9375 9.125 C-1.13279297 9.78371094 -1.32808594 10.44242188 -1.52929688 11.12109375 C-2.01304986 12.74933552 -2.50569075 14.37493182 -3 16 C-4.9451 13.08235 -5.45276317 11.37462715 -6 8 C-5.34 8 -4.68 8 -4 8 C-3.71125 7.05125 -3.4225 6.1025 -3.125 5.125 C-2 2 -2 2 0 0 Z " fill="#CFF6DC" transform="translate(104,134)"/>
<path d="M0 0 C0.99 0 1.98 0 3 0 C7 6.75 7 6.75 7 9 C6.34 9 5.68 9 5 9 C4.67 8.01 4.34 7.02 4 6 C3.01 5.67 2.02 5.34 1 5 C0.34 5.99 -0.32 6.98 -1 8 C-1.93065133 5.39417629 -2.14917407 4.35801776 -1.0625 1.75 C-0.711875 1.1725 -0.36125 0.595 0 0 Z " fill="#6BD7D9" transform="translate(222,371)"/>
<path d="M0 0 C0.33 0.99 0.66 1.98 1 3 C3.97 3.495 3.97 3.495 7 4 C7.33 3.34 7.66 2.68 8 2 C8.66 3.65 9.32 5.3 10 7 C9.01 7.66 8.02 8.32 7 9 C6.67 7.68 6.34 6.36 6 5 C5.05125 4.855625 4.1025 4.71125 3.125 4.5625 C0 4 0 4 -2 3 C-2 2.34 -2 1.68 -2 1 C-1.34 0.67 -0.68 0.34 0 0 Z " fill="#67EDF3" transform="translate(372,367)"/>
<path d="M0 0 C0 6.96541702 -6.5274772 13.08176187 -11 18 C-11 13.68897144 -8.5313419 11.20945223 -6.0625 7.875 C-5.59392578 7.22917969 -5.12535156 6.58335937 -4.64257812 5.91796875 C-1.22019788 1.22019788 -1.22019788 1.22019788 0 0 Z " fill="#D4F7DE" transform="translate(51,307)"/>
<path d="M0 0 C0.99 0.495 0.99 0.495 2 1 C2 1.66 2 2.32 2 3 C2.99 3 3.98 3 5 3 C4.125 8.75 4.125 8.75 3 11 C2.34 11 1.68 11 1 11 C0.67 7.37 0.34 3.74 0 0 Z " fill="#58DFE6" transform="translate(247,374)"/>
<path d="M0 0 C-0.33 1.65 -0.66 3.3 -1 5 C-4.4342662 5.85856655 -6.61682513 5.97591583 -10 5 C-8.90241493 4.15801693 -7.79664683 3.32669329 -6.6875 2.5 C-6.07261719 2.0359375 -5.45773437 1.571875 -4.82421875 1.09375 C-3 0 -3 0 0 0 Z " fill="#A1C1F1" transform="translate(374,401)"/>
<path d="M0 0 C5.23880078 0.55145271 9.97350697 1.42922093 15 3 C14.34 3.66 13.68 4.32 13 5 C6.91304348 4.45652174 6.91304348 4.45652174 4 3 C2.68 3 1.36 3 0 3 C0 2.01 0 1.02 0 0 Z " fill="#A7C3ED" transform="translate(335,68)"/>
<path d="M0 0 C5.28 1.65 10.56 3.3 16 5 C16 5.33 16 5.66 16 6 C9.07 5.505 9.07 5.505 2 5 C1.34 3.35 0.68 1.7 0 0 Z " fill="#C9EDE1" transform="translate(143,409)"/>
<path d="M0 0 C0.99 0 1.98 0 3 0 C3.33 0.66 3.66 1.32 4 2 C4.99 2.33 5.98 2.66 7 3 C6.67 3.99 6.34 4.98 6 6 C4.02 6.33 2.04 6.66 0 7 C0 4.69 0 2.38 0 0 Z " fill="#58DFE2" transform="translate(234,364)"/>
<path d="M0 0 C0 0.99 0 1.98 0 3 C-3.06246747 4.78409802 -5.22079273 5.22880021 -8.75 5.125 C-9.54921875 5.10695313 -10.3484375 5.08890625 -11.171875 5.0703125 C-11.77515625 5.04710937 -12.3784375 5.02390625 -13 5 C-13.33 5.99 -13.66 6.98 -14 8 C-14 6.68 -14 5.36 -14 4 C-11.36 4 -8.72 4 -6 4 C-5.67 3.01 -5.34 2.02 -5 1 C-3 0 -3 0 0 0 Z " fill="#70D4D9" transform="translate(274,364)"/>
<path d="M0 0 C0.33 1.32 0.66 2.64 1 4 C0.21753906 4.04898437 -0.56492187 4.09796875 -1.37109375 4.1484375 C-2.38300781 4.22320312 -3.39492188 4.29796875 -4.4375 4.375 C-5.44683594 4.44460938 -6.45617187 4.51421875 -7.49609375 4.5859375 C-8.73552734 4.79089844 -8.73552734 4.79089844 -10 5 C-10.33 5.66 -10.66 6.32 -11 7 C-11.66 6.67 -12.32 6.34 -13 6 C-12.67 4.68 -12.34 3.36 -12 2 C-9.36 2.33 -6.72 2.66 -4 3 C-4 2.34 -4 1.68 -4 1 C-2.68 0.67 -1.36 0.34 0 0 Z " fill="#7AE1E4" transform="translate(336,384)"/>
<path d="M0 0 C2.64 0.33 5.28 0.66 8 1 C8 1.66 8 2.32 8 3 C6.35 2.67 4.7 2.34 3 2 C1.95785309 6.61507774 1.95785309 6.61507774 3 11 C1.68 10.67 0.36 10.34 -1 10 C-0.84402344 9.44570313 -0.68804687 8.89140625 -0.52734375 8.3203125 C-0.33269531 7.59585937 -0.13804687 6.87140625 0.0625 6.125 C0.25972656 5.40570313 0.45695313 4.68640625 0.66015625 3.9453125 C1.21132607 1.92726407 1.21132607 1.92726407 0 0 Z " fill="#81E2E8" transform="translate(145,367)"/>
<path d="M0 0 C2.94721162 2.74395564 5.19168608 5.38337216 7 9 C6.67 9.66 6.34 10.32 6 11 C3 11 3 11 1 10 C1.20625 9.278125 1.4125 8.55625 1.625 7.8125 C2.05952211 4.55358415 1.41680669 2.91695496 0 0 Z " fill="#98B7ED" transform="translate(411,245)"/>
<path d="M0 0 C6.4 -0.49230769 6.4 -0.49230769 9.4375 2 C10.2109375 2.99 10.2109375 2.99 11 4 C8 4 8 4 6 3.4375 C3.80883384 2.77947007 3.80883384 2.77947007 1 4 C0.67 2.68 0.34 1.36 0 0 Z " fill="#6AD6D2" transform="translate(129,362)"/>
<path d="M0 0 C0.33 0.99 0.66 1.98 1 3 C-1.53528736 7.38799735 -4.71349605 11.16574539 -8 15 C-8 10.91518119 -6.29880669 9.15295347 -4 5.8125 C-3.2575 4.72582031 -2.515 3.63914062 -1.75 2.51953125 C-1.1725 1.68808594 -0.595 0.85664062 0 0 Z " fill="#9FB8ED" transform="translate(310,120)"/>
<path d="M0 0 C1.32 0 2.64 0 4 0 C4.33 2.64 4.66 5.28 5 8 C2 7 2 7 0.3125 3.9375 C-0.120625 2.968125 -0.55375 1.99875 -1 1 C-0.67 0.67 -0.34 0.34 0 0 Z " fill="#78DAE0" transform="translate(357,362)"/>
<path d="M0 0 C2.0625 0.4375 2.0625 0.4375 4 1 C3.49855469 1.38800781 2.99710937 1.77601563 2.48046875 2.17578125 C0.75108118 3.92975791 0.75108118 3.92975791 0.92578125 6.48046875 C1.11720703 7.82044922 1.11720703 7.82044922 1.3125 9.1875 C1.43238281 10.08855469 1.55226563 10.98960937 1.67578125 11.91796875 C1.78277344 12.60503906 1.88976562 13.29210937 2 14 C1.34 14 0.68 14 0 14 C-1.10424872 9.58300512 -1.15088074 5.52642225 -1 1 C-0.67 0.67 -0.34 0.34 0 0 Z " fill="#D8F8E0" transform="translate(85,343)"/>
<path d="M0 0 C4 5 4 5 8 10 C7.67 10.66 7.34 11.32 7 12 C5.0625 11.25 5.0625 11.25 3 10 C2.3125 8 2.3125 8 2 6 C1.04134491 3.66924071 1.04134491 3.66924071 -2 2 C-1.34 2 -0.68 2 0 2 C0 1.34 0 0.68 0 0 Z " fill="#CEF4DD" transform="translate(110,380)"/>
<path d="M0 0 C5.625 -0.25 5.625 -0.25 9 2 C9 2.99 9 3.98 9 5 C8.05125 4.67 7.1025 4.34 6.125 4 C2.43025905 2.74108089 2.43025905 2.74108089 -1 4 C-0.67 2.68 -0.34 1.36 0 0 Z " fill="#6BD4D7" transform="translate(155,362)"/>
<path d="M0 0 C1.9375 0.3125 1.9375 0.3125 4 1 C4.33 1.99 4.66 2.98 5 4 C5.99 4 6.98 4 8 4 C8 4.66 8 5.32 8 6 C5.69 6 3.38 6 1 6 C-0.0625 4.125 -0.0625 4.125 -1 2 C-0.67 1.34 -0.34 0.68 0 0 Z " fill="#A0C6F7" transform="translate(360,88)"/>
<path d="M0 0 C8.6309795 3.85421412 8.6309795 3.85421412 11 8 C2.97804878 5.38414634 2.97804878 5.38414634 0 2 C0 1.34 0 0.68 0 0 Z " fill="#A8C3EE" transform="translate(368,80)"/>
<path d="M0 0 C3.0831351 1.19899698 6.06279492 2.47700477 9 4 C7.329375 4.2165625 7.329375 4.2165625 5.625 4.4375 C2.17857953 4.78372035 2.17857953 4.78372035 0 6 C0 5.34 0 4.68 0 4 C-0.99 3.67 -1.98 3.34 -3 3 C-2.34 3 -1.68 3 -1 3 C-0.67 2.01 -0.34 1.02 0 0 Z " fill="#57E2E9" transform="translate(255,389)"/>
<path d="M0 0 C1.67542976 0.28604898 3.34385343 0.61781233 5 1 C5 2.32 5 3.64 5 5 C3.35 5 1.7 5 0 5 C-0.5625 3.0625 -0.5625 3.0625 -1 1 C-0.67 0.67 -0.34 0.34 0 0 Z " fill="#6DD1DC" transform="translate(380,362)"/>
<path d="M0 0 C4.12769474 2.06384737 4.3359391 2.19643223 6 6 C6.66 6.66 7.32 7.32 8 8 C7.67 9.32 7.34 10.64 7 12 C3.535 6.06 3.535 6.06 0 0 Z " fill="#A3BBED" transform="translate(343,191)"/>
<path d="M0 0 C-1.25805377 4.50802601 -2.90407165 7.4912812 -6 11 C-6.10311531 7.18473336 -6.15005905 4.35006932 -3.5625 1.3125 C-2 0 -2 0 0 0 Z " fill="#CFF5DE" transform="translate(112,120)"/>
<path d="M0 0 C4.05281712 1.22527029 7.44360764 2.69880494 11 5 C9.4375 5.75 9.4375 5.75 7 6 C4.49713591 4.86915563 2.32992278 3.47860484 0 2 C0 1.34 0 0.68 0 0 Z " fill="#A2C0EA" transform="translate(356,74)"/>
<path d="M0 0 C2.64 1.65 5.28 3.3 8 5 C6.02 5.99 6.02 5.99 4 7 C3.01 6.67 2.02 6.34 1 6 C0.67 4.02 0.34 2.04 0 0 Z " fill="#CAF1DF" transform="translate(128,400)"/>
<path d="M0 0 C0 1.32 0 2.64 0 4 C-2.31 4 -4.62 4 -7 4 C-6.67 3.01 -6.34 2.02 -6 1 C-3 0 -3 0 0 0 Z " fill="#77D7E2" transform="translate(277,389)"/>
<path d="M0 0 C0.66 0 1.32 0 2 0 C2 2.64 2 5.28 2 8 C-1 7 -1 7 -3 6 C-3.33 6.66 -3.66 7.32 -4 8 C-4 7.01 -4 6.02 -4 5 C-2.68 4.34 -1.36 3.68 0 3 C0 2.01 0 1.02 0 0 Z " fill="#5CDEE1" transform="translate(327,374)"/>
<path d="M0 0 C1.2065625 0.0309375 1.2065625 0.0309375 2.4375 0.0625 C2.4375 1.0525 2.4375 2.0425 2.4375 3.0625 C0.7875 2.7325 -0.8625 2.4025 -2.5625 2.0625 C-2.5625 4.3725 -2.5625 6.6825 -2.5625 9.0625 C-3.2225 8.7325 -3.8825 8.4025 -4.5625 8.0625 C-3.54737544 0.08652135 -3.54737544 0.08652135 0 0 Z " fill="#8CD9DD" transform="translate(236.5625,361.9375)"/>
<path d="M0 0 C2.31 0.33 4.62 0.66 7 1 C6.01 1.495 6.01 1.495 5 2 C5.33 3.32 5.66 4.64 6 6 C4.35 5.67 2.7 5.34 1 5 C0.67 3.35 0.34 1.7 0 0 Z " fill="#9BBCF9" transform="translate(407,216)"/>
<path d="M0 0 C0.99 0 1.98 0 3 0 C3 0.66 3 1.32 3 2 C3.66 2.33 4.32 2.66 5 3 C4.01 3.495 4.01 3.495 3 4 C3 5.32 3 6.64 3 8 C1.5 6.8125 1.5 6.8125 0 5 C-0.1875 2.3125 -0.1875 2.3125 0 0 Z " fill="#97B8EE" transform="translate(403,208)"/>
<path d="M0 0 C3.08089673 2.77280706 4.68775452 5.06326356 6 9 C4.02 8.34 2.04 7.68 0 7 C0.66 6.67 1.32 6.34 2 6 C2 5.34 2 4.68 2 4 C1.34 4 0.68 4 0 4 C0 2.68 0 1.36 0 0 Z " fill="#98B5EF" transform="translate(380,197)"/>
<path d="M0 0 C3.84814487 -0.58305225 5.76308635 0.2997117 8.8125 2.5 C9.88364055 3.32219744 10.9491359 4.15204049 12 5 C11.01 5.495 11.01 5.495 10 6 C7.6171875 5.00390625 7.6171875 5.00390625 4.875 3.5625 C3.96492187 3.08941406 3.05484375 2.61632812 2.1171875 2.12890625 C1.41851562 1.75636719 0.71984375 1.38382812 0 1 C0 0.67 0 0.34 0 0 Z " fill="#D0F0E2" transform="translate(128,418)"/>
<path d="M0 0 C-0.33 1.32 -0.66 2.64 -1 4 C-2.98 4 -4.96 4 -7 4 C-7 3.01 -7 2.02 -7 1 C-2.25 0 -2.25 0 0 0 Z " fill="#70D3DD" transform="translate(313,389)"/>
<path d="M0 0 C0.99 0 1.98 0 3 0 C2.25 2.9375 2.25 2.9375 1 6 C-1.125 6.875 -1.125 6.875 -3 7 C-3 6.01 -3 5.02 -3 4 C-2.34 4 -1.68 4 -1 4 C-0.67 2.68 -0.34 1.36 0 0 Z " fill="#99BFFB" transform="translate(389,385)"/>
<path d="M0 0 C1.65 0 3.3 0 5 0 C4.01 1.485 4.01 1.485 3 3 C3 3.66 3 4.32 3 5 C4.98 5 6.96 5 9 5 C9 5.33 9 5.66 9 6 C5.625 6.125 5.625 6.125 2 6 C1.34 5.34 0.68 4.68 0 4 C0 2.68 0 1.36 0 0 Z " fill="#78D7D8" transform="translate(257,375)"/>
<path d="M0 0 C0.33 1.32 0.66 2.64 1 4 C0.0925 3.79375 -0.815 3.5875 -1.75 3.375 C-5.11027897 2.9872755 -6.24075815 3.19588033 -9 5 C-9 3 -9 3 -7.875 1.375 C-5.24112056 -0.55651159 -3.18083044 -0.21205536 0 0 Z " fill="#6CD4D2" transform="translate(336,362)"/>
<path d="M0 0 C0.66 0.33 1.32 0.66 2 1 C2 2.65 2 4.3 2 6 C1.34 6 0.68 6 0 6 C0 5.34 0 4.68 0 4 C-1.65 4 -3.3 4 -5 4 C-5 3.34 -5 2.68 -5 2 C-2.625 0.9375 -2.625 0.9375 0 0 Z " fill="#50E1E1" transform="translate(228,384)"/>
<path d="M0 0 C0.66 0.33 1.32 0.66 2 1 C2 3.64 2 6.28 2 9 C1.67 8.34 1.34 7.68 1 7 C0.34 7 -0.32 7 -1 7 C-0.67 4.69 -0.34 2.38 0 0 Z " fill="#60E1E4" transform="translate(235,378)"/>
<path d="M0 0 C1.98 0.99 1.98 0.99 4 2 C4 4.64 4 7.28 4 10 C1.04816899 7.04816899 0.91336012 4.04488053 0 0 Z " fill="#D5FADE" transform="translate(88,367)"/>
<path d="M0 0 C0.66 0.33 1.32 0.66 2 1 C2.4140625 3.50390625 2.4140625 3.50390625 2.625 6.5625 C2.69976562 7.57441406 2.77453125 8.58632812 2.8515625 9.62890625 C2.92503906 10.80259766 2.92503906 10.80259766 3 12 C0.98238256 8.97357383 -0.05339709 6.4951492 -1 3 C-0.67 2.01 -0.34 1.02 0 0 Z " fill="#9EBAEF" transform="translate(413,140)"/>
<path d="M0 0 C0.66 0 1.32 0 2 0 C0.5682479 5.01113235 -1.98445693 6.94469549 -6 10 C-4.63312778 6.01328937 -2.84804907 3.11505367 0 0 Z " fill="#9FB7EC" transform="translate(320,106)"/>
<path d="M0 0 C0.99 0.495 0.99 0.495 2 1 C2 1.66 2 2.32 2 3 C2.99 3 3.98 3 5 3 C5.33 2.34 5.66 1.68 6 1 C6.33 1.99 6.66 2.98 7 4 C4.69 4.33 2.38 4.66 0 5 C0 3.35 0 1.7 0 0 Z " fill="#80D2DB" transform="translate(317,390)"/>
<path d="M0 0 C1.32 0 2.64 0 4 0 C3.34 1.65 2.68 3.3 2 5 C1.01 5 0.02 5 -1 5 C-1.33 4.01 -1.66 3.02 -2 2 C-1.34 2 -0.68 2 0 2 C0 1.34 0 0.68 0 0 Z " fill="#58DFE2" transform="translate(320,388)"/>
<path d="M0 0 C0.33 1.65 0.66 3.3 1 5 C-0.32 5 -1.64 5 -3 5 C-3 4.34 -3 3.68 -3 3 C-3.66 2.67 -4.32 2.34 -5 2 C-2 0 -2 0 0 0 Z " fill="#4AE6EC" transform="translate(312,379)"/>
<path d="M0 0 C2.64 0 5.28 0 8 0 C6.515 1.485 6.515 1.485 5 3 C5.33 3.99 5.66 4.98 6 6 C4 6 4 6 1.875 4.125 C0 2 0 2 0 0 Z " fill="#52E3E6" transform="translate(290,375)"/>
<path d="M0 0 C1.32 0.99 2.64 1.98 4 3 C3.67 4.32 3.34 5.64 3 7 C2.34 6.67 1.68 6.34 1 6 C1 5.34 1 4.68 1 4 C0.01 3.67 -0.98 3.34 -2 3 C-1.34 2.01 -0.68 1.02 0 0 Z " fill="#7EEFF4" transform="translate(368,369)"/>
<path d="M0 0 C2.475 0.495 2.475 0.495 5 1 C5 3.31 5 5.62 5 8 C2.74754119 5.31158141 1.11786042 3.35358125 0 0 Z " fill="#D4FBE1" transform="translate(297,320)"/>
<path d="M0 0 C0 0.99 0 1.98 0 3 C-0.99 3.495 -0.99 3.495 -2 4 C-1.34 2.68 -0.68 1.36 0 0 Z M-3 4 C-2.34 4.66 -1.68 5.32 -1 6 C-3.97 8.475 -3.97 8.475 -7 11 C-5.79618552 8.50638429 -4.54571278 6.31856917 -3 4 Z " fill="#D7F8E0" transform="translate(119,209)"/>
<path d="M0 0 C0.66 0 1.32 0 2 0 C2 1.98 2 3.96 2 6 C1.34 6 0.68 6 0 6 C0 6.66 0 7.32 0 8 C-0.66 8 -1.32 8 -2 8 C-1.34 5.36 -0.68 2.72 0 0 Z " fill="#70D3D4" transform="translate(237,386)"/>
<path d="M0 0 C1.32 0.33 2.64 0.66 4 1 C4 2.98 4 4.96 4 7 C1 5 1 5 0.3125 2.375 C0.209375 1.59125 0.10625 0.8075 0 0 Z " fill="#5BDFE4" transform="translate(369,384)"/>
<path d="M0 0 C1.32 0 2.64 0 4 0 C4 1.98 4 3.96 4 6 C3.01 5.67 2.02 5.34 1 5 C0.67 3.35 0.34 1.7 0 0 Z " fill="#74DEE2" transform="translate(141,385)"/>
<path d="M0 0 C1.65 0.33 3.3 0.66 5 1 C4.01 1.495 4.01 1.495 3 2 C2.67 2.99 2.34 3.98 2 5 C1.01 4.67 0.02 4.34 -1 4 C-0.67 2.68 -0.34 1.36 0 0 Z " fill="#6AE8EB" transform="translate(282,382)"/>
<path d="M0 0 C0.433125 0.9590625 0.433125 0.9590625 0.875 1.9375 C1.82823451 4.15206079 1.82823451 4.15206079 4 5 C2.35 5.33 0.7 5.66 -1 6 C-1.33 5.01 -1.66 4.02 -2 3 C-1.34 2.01 -0.68 1.02 0 0 Z " fill="#5AE7ED" transform="translate(194,379)"/>
<path d="M0 0 C0.66 0 1.32 0 2 0 C2 0.99 2 1.98 2 3 C2.99 3 3.98 3 5 3 C4.67 3.99 4.34 4.98 4 6 C2.35 6 0.7 6 -1 6 C-0.34 5.67 0.32 5.34 1 5 C0.67 3.35 0.34 1.7 0 0 Z " fill="#75D8DE" transform="translate(376,374)"/>
<path d="M0 0 C2.475 0.495 2.475 0.495 5 1 C5.33 2.98 5.66 4.96 6 7 C3 6 3 6 1.3125 2.9375 C0.879375 1.968125 0.44625 0.99875 0 0 Z " fill="#96B5F0" transform="translate(406,288)"/>
<path d="M0 0 C3.53586014 3.17320782 5.58578031 5.16743695 6 10 C3.25722422 6.80009492 1.3697164 3.99500618 0 0 Z " fill="#A1B9EA" transform="translate(400,278)"/>
<path d="M0 0 C0.66 0.33 1.32 0.66 2 1 C0.79618552 3.49361571 -0.45428722 5.68143083 -2 8 C-2.99 7.67 -3.98 7.34 -5 7 C-3.35 4.69 -1.7 2.38 0 0 Z " fill="#D8FAE2" transform="translate(110,221)"/>
<path d="M0 0 C0.33 0.66 0.66 1.32 1 2 C1.66 2.33 2.32 2.66 3 3 C1.35 5.31 -0.3 7.62 -2 10 C-2 6.38970831 -1.03907418 3.44193324 0 0 Z " fill="#99B6ED" transform="translate(298,181)"/>
<path d="M0 0 C0.33 0.66 0.66 1.32 1 2 C0.07421875 3.9453125 0.07421875 3.9453125 -1.3125 6.125 C-1.76238281 6.84945312 -2.21226562 7.57390625 -2.67578125 8.3203125 C-3.11277344 8.87460938 -3.54976562 9.42890625 -4 10 C-4.66 10 -5.32 10 -6 10 C-4.6302836 6.00499382 -2.74277578 3.19990508 0 0 Z " fill="#D9F8E2" transform="translate(148,167)"/>
<path d="M0 0 C0.66 0.33 1.32 0.66 2 1 C0.50902342 4.7952131 -1.75700849 6.61042731 -5 9 C-3.50163895 5.88801935 -1.80066242 2.9465385 0 0 Z " fill="#D8F8DF" transform="translate(188,109)"/>
<path d="M0 0 C0.66 0 1.32 0 2 0 C2 0.66 2 1.32 2 2 C2.99 1.67 3.98 1.34 5 1 C5.66 1.66 6.32 2.32 7 3 C4.36 3.33 1.72 3.66 -1 4 C-0.67 2.68 -0.34 1.36 0 0 Z " fill="#C2EEE1" transform="translate(158,81)"/>
<path d="M0 0 C0.99 0.66 1.98 1.32 3 2 C-2.75 5 -2.75 5 -5 5 C-5 4.01 -5 3.02 -5 2 C-2.6875 0.875 -2.6875 0.875 0 0 Z " fill="#A7C3EE" transform="translate(372,416)"/>
<path d="M0 0 C0.66 0.33 1.32 0.66 2 1 C2 1.66 2 2.32 2 3 C-1 5 -1 5 -5 5 C-4.67 4.01 -4.34 3.02 -4 2 C-3.01 2.33 -2.02 2.66 -1 3 C-0.67 2.01 -0.34 1.02 0 0 Z " fill="#56DDE5" transform="translate(271,380)"/>
<path d="M0 0 C0.33 2.64 0.66 5.28 1 8 C-1 6.1875 -1 6.1875 -3 4 C-3 3.01 -3 2.02 -3 1 C-1 0 -1 0 0 0 Z " fill="#6BD7D8" transform="translate(133,372)"/>
<path d="M0 0 C1.65 0 3.3 0 5 0 C5 0.99 5 1.98 5 3 C3.35 3 1.7 3 0 3 C0 2.01 0 1.02 0 0 Z " fill="#67E0E8" transform="translate(225,367)"/>
<path d="M0 0 C3.08089673 2.77280706 4.68775452 5.06326356 6 9 C1.2 5.67692308 1.2 5.67692308 0.1875 2.25 C0.125625 1.5075 0.06375 0.765 0 0 Z " fill="#D7F8DE" transform="translate(232,168)"/>
<path d="M0 0 C2.25245881 2.68841859 3.88213958 4.64641875 5 8 C3.68 7.67 2.36 7.34 1 7 C1.33 6.01 1.66 5.02 2 4 C1.34 4 0.68 4 0 4 C0 2.68 0 1.36 0 0 Z " fill="#9AB6E8" transform="translate(352,153)"/>
<path d="M0 0 C0.66 0.99 1.32 1.98 2 3 C1.34 3 0.68 3 0 3 C-0.268125 3.61875 -0.53625 4.2375 -0.8125 4.875 C-2 7 -2 7 -5 9 C-3.7508258 5.54074837 -2.32472205 2.85306797 0 0 Z " fill="#DCF8E5" transform="translate(165,142)"/>
<path d="M0 0 C2 1 2 1 2 1 Z " fill="#00FFFF" transform="translate(296,386)"/>
<path d="" fill="#FFFFFF" transform="translate(0,0)"/>
<path d="" fill="#FFFFFF" transform="translate(0,0)"/>
<path d="" fill="#00FFFF" transform="translate(0,0)"/>
</svg>
